<svg width="285" height="80" viewBox="0 0 285 80" fill="none" xmlns="http://www.w3.org/2000/svg">
  <title>Transport NSW Dark Version</title>
  <g clip-path="url(#clip0_2232_2704)">
    <!-- NSW Waratah logo simplified for dark mode -->
    <path fill-rule="evenodd" clip-rule="evenodd" d="M9.18734 65.9016H8.10884H8.10618V64.9851L10.4954 64.9966V67.9272H9.58865V67.3934C9.53169 67.453 9.4703 67.5126 9.40445 67.5719C9.2603 67.6973 9.085 67.8012 8.88301 67.8792C8.67745 67.9591 8.42386 68.0001 8.1302 68.0001C7.631 68.0001 7.19054 67.8846 6.82126 67.6572C6.45108 67.429 6.16278 67.1013 5.96256 66.6848C5.76413 66.2718 5.66357 65.7781 5.66357 65.2169C5.66357 64.6476 5.76947 64.1468 5.97858 63.7285C6.1868 63.3085 6.4849 62.9789 6.86397 62.749C7.24304 62.5208 7.68884 62.4053 8.18894 62.4053C8.51373 62.4053 8.8136 62.4578 9.07966 62.5606C9.3484 62.6646 9.58509 62.8086 9.78085 62.986C9.98017 63.1656 10.1377 63.3706 10.2507 63.5971C10.3637 63.8217 10.426 64.0615 10.4375 64.3083L10.442 64.4016H9.14819L9.13484 64.3289C9.10636 64.1761 9.04762 64.0332 8.96043 63.9044C8.875 63.7773 8.76376 63.6734 8.63118 63.598C8.49948 63.5226 8.34288 63.4842 8.16492 63.4842C7.94956 63.4842 7.75113 63.5401 7.57762 63.6503C7.40499 63.7596 7.26528 63.9398 7.16296 64.1849C7.05884 64.4354 7.00634 64.7721 7.00634 65.1876C7.00634 65.5259 7.04105 65.8083 7.10956 66.0286C7.17629 66.2453 7.26796 66.4184 7.38095 66.5436C7.49309 66.6681 7.62033 66.7559 7.76092 66.8048C7.90329 66.8571 8.05368 66.8838 8.2085 66.8838C8.35177 66.8838 8.48079 66.8598 8.59203 66.8136C8.70414 66.7656 8.80203 66.7034 8.88211 66.628C8.96309 66.5517 9.02716 66.4681 9.07164 66.3811C9.11793 66.2933 9.14639 66.2063 9.15708 66.1218L9.18734 65.9016ZM13.6612 62.4061C14.1657 62.4061 14.6115 62.5206 14.9852 62.7462C15.3608 62.9736 15.6562 63.3012 15.8608 63.7203C16.0637 64.135 16.1669 64.6377 16.1669 65.2133C16.1669 65.7807 16.0655 66.2781 15.8644 66.6918C15.6615 67.1093 15.3679 67.4352 14.9915 67.6606C14.6177 67.8863 14.1693 67.9998 13.6603 67.9998C13.1468 67.9998 12.6957 67.8854 12.3202 67.6606C11.9447 67.4369 11.6484 67.1127 11.4419 66.6953C11.239 66.2823 11.1358 65.7841 11.1358 65.2141C11.1358 64.6413 11.2399 64.1395 11.4464 63.724C11.6537 63.3048 11.9509 62.977 12.3291 62.7488C12.7073 62.5214 13.1549 62.4061 13.6612 62.4061ZM13.6612 66.9458C13.9005 66.9458 14.1097 66.889 14.2823 66.7771C14.454 66.6651 14.5893 66.4831 14.6854 66.238C14.7824 65.9841 14.8322 65.644 14.8322 65.2283C14.8322 64.8012 14.7815 64.453 14.6827 64.1928C14.5875 63.9398 14.4514 63.7523 14.2787 63.6351C14.1043 63.5187 13.897 63.4593 13.6621 63.4593C13.4263 63.4593 13.218 63.5187 13.0436 63.6351C12.8701 63.7514 12.7322 63.9398 12.6352 64.1946C12.5346 64.4566 12.4839 64.8038 12.4839 65.2274C12.4839 65.644 12.5346 65.9841 12.6343 66.2371C12.7313 66.4831 12.8683 66.6651 13.0418 66.7761C13.2154 66.889 13.4236 66.9458 13.6612 66.9458ZM18.7535 66.3179L17.433 62.4974H16.2335L18.0879 67.9083H19.4155L21.286 62.4974H20.0847L18.7535 66.3179ZM25.2488 65.7121H23.042V66.8277L25.6226 66.8311V67.9083H21.8078V62.4974H25.586L25.5826 63.5667H23.0483V64.6572H25.2488V65.7121ZM30.0665 65.3845C30.2133 65.2531 30.3335 65.0843 30.4261 64.8828C30.5159 64.6829 30.5621 64.4369 30.5621 64.1502C30.5621 63.8294 30.4955 63.5427 30.3629 63.2967C30.2302 63.0462 30.0202 62.8482 29.7374 62.7061C29.4588 62.5675 29.1003 62.4974 28.6713 62.4974H26.3703V67.9066H27.6044V65.8915H28.5129L29.3681 67.9066H30.6637L29.6671 65.6661C29.8113 65.5896 29.9456 65.4946 30.0665 65.3845ZM29.3137 64.1759C29.3137 64.39 29.2417 64.5595 29.0941 64.6962C28.9462 64.8312 28.7407 64.8996 28.4819 64.8996H27.6044V63.484H28.5592C28.7816 63.484 28.9606 63.5453 29.1046 63.6715C29.2454 63.7949 29.3137 63.9601 29.3137 64.1759ZM32.5621 62.4974L34.8179 65.761V62.4974H36.0556V67.9083H34.9657L32.6129 64.5098V67.9083H31.3788V62.4974H32.5621ZM39.8369 66.0248L38.7033 62.4974H37.0117V67.9083H38.2565V64.4228L39.3545 67.9083H40.3156L41.4217 64.4033V67.9083H42.6701V62.4974H40.982L39.8369 66.0248ZM47.0641 65.7121H44.8574V66.8277L47.4386 66.8311V67.9083H43.6231V62.4974H47.4022L47.3977 63.5667H44.8653V64.6572H47.0641V65.7121ZM51.6699 65.761L49.415 62.4974H48.2306V67.9083H49.4641V64.5098L51.8167 67.9083H52.9068V62.4974H51.6699V65.761ZM55.0098 63.6173H53.4266V62.4974H57.7985V63.6173H56.252V67.9083H55.0098V63.6173Z" fill="#ffffff"/>

    <!-- NSW Government text in white -->
    <path fill-rule="evenodd" clip-rule="evenodd" d="M41 25c-1.54.28-2.73-1.19-3.16-3.64s.21-4.24 1.72-4.51 2.73 1.22 3.16 3.63S42.51 24.76 41 25m-.7-9.36A5.13 5.13 0 0 0 35 21a5.27 5.27 0 1 0 10.54 0 5.14 5.14 0 0 0-5.27-5.3M87.44 25c-1.54.28-2.73-1.19-3.16-3.63s.22-4.25 1.72-4.52 2.74 1.22 3.16 3.63S89 24.76 87.44 25m-.7-9.36A5.13 5.13 0 0 0 81.47 21 5.27 5.27 0 1 0 92 21a5.13 5.13 0 0 0-5.27-5.3" fill="#ffffff"/>

    <!-- Simplified waratah flower in light colors -->
    <path d="M30.2054 39.194C25.9733 38.6746 21.8623 40.0306 14.6288 38.0663C13.8903 37.8655 13.618 38.6435 14.0175 39.2954C15.9609 42.4675 25.7776 39.9818 30.2249 39.5236C30.4191 39.5033 30.3994 39.218 30.2054 39.194Z" fill="#ff6b9d"/>
    <path d="M48.7291 38.0663C41.4957 40.0306 37.3846 38.6746 33.1525 39.194C32.9586 39.218 32.9382 39.5041 33.133 39.5236C37.5813 39.9818 47.3971 42.4675 49.3405 39.2954C49.7399 38.6435 49.4678 37.8655 48.7291 38.0663Z" fill="#ff6b9d"/>

    <!-- Additional waratah elements in light theme colors -->
    <path d="M31.6738 26.6918C33.0966 23.8865 35.3693 21.3715 37.0759 19.7828C36.139 15.973 34.6965 12.379 32.7051 8.61898C32.4996 8.2309 32.1133 8 31.6746 8C31.236 8 30.8507 8.23178 30.6443 8.61898C28.6324 12.3914 27.165 16.1453 26.2778 19.7819C28.0592 21.4292 30.4093 24.1156 31.6738 26.6918Z" fill="#4fbdff"/>
  </g>

  <!-- Transport NSW Text in white -->
  <path d="M177.268 47.7142V49.2246C177.268 49.8389 176.757 50.343 176.136 50.343H171.107V65.738C171.107 66.3544 170.595 66.8565 169.974 66.8565H167.72C167.097 66.8565 166.587 66.3544 166.587 65.738V50.343H161.558C160.935 50.343 160.423 49.8389 160.423 49.2246V47.7142C160.423 47.0998 160.933 46.5957 161.558 46.5957H176.134C176.755 46.5957 177.266 47.0978 177.266 47.7142H177.268Z" fill="#ffffff"/>
  <path d="M266.595 60.246C266.595 59.5844 266.661 58.968 266.797 58.4029C266.933 57.8338 267.156 57.3395 267.474 56.9142C267.79 56.4908 268.207 56.1501 268.727 55.906H268.731C269.246 55.6618 269.88 55.5358 270.631 55.5358C270.659 55.5358 270.687 55.5397 270.715 55.5417H270.963C271.586 55.5417 272.095 55.0395 272.095 54.4251V52.9128C272.095 52.7789 272.069 52.6489 272.025 52.5308C271.874 52.1251 271.492 51.8298 271.036 51.7983H270.985C270.679 51.8101 270.381 51.8475 270.089 51.9144C269.884 51.9696 269.706 52.0227 269.706 52.0227C269.226 52.1763 268.777 52.387 268.353 52.6608C267.932 52.9364 267.556 53.2653 267.23 53.6532C266.903 54.0431 266.643 54.4626 266.453 54.9155L266.399 54.9135L266.395 53.3106C266.395 52.6962 265.89 52.1921 265.264 52.1921H263.644C263.023 52.1921 262.511 52.6962 262.511 53.3106V65.74C262.511 66.3564 263.023 66.8585 263.644 66.8585H265.464C266.089 66.8585 266.597 66.3564 266.597 65.74V60.248L266.595 60.246Z" fill="#ffffff"/>

  <defs>
    <clipPath id="clip0_2232_2704">
      <rect width="55.5" height="60" fill="white" transform="translate(4 8)"/>
    </clipPath>
  </defs>
</svg>
