<svg width="285" height="80" viewBox="0 0 285 80" fill="none" xmlns="http://www.w3.org/2000/svg" class="hidden mx-info-2 my-info-3 h-[60px] w-[268px] xl:block">
                        <title>warrahop full</title>
                        <g clip-path="url(#clip0_2232_2704)">
                           <path fill-rule="evenodd" clip-rule="evenodd" d="M9.18734 65.9016H8.10884H8.10618V64.9851L10.4954 64.9966V67.9272H9.58865V67.3934C9.53169 67.453 9.4703 67.5126 9.40445 67.5719C9.2603 67.6973 9.085 67.8012 8.88301 67.8792C8.67745 67.9591 8.42386 68.0001 8.1302 68.0001C7.631 68.0001 7.19054 67.8846 6.82126 67.6572C6.45108 67.429 6.16278 67.1013 5.96256 66.6848C5.76413 66.2718 5.66357 65.7781 5.66357 65.2169C5.66357 64.6476 5.76947 64.1468 5.97858 63.7285C6.1868 63.3085 6.4849 62.9789 6.86397 62.749C7.24304 62.5208 7.68884 62.4053 8.18894 62.4053C8.51373 62.4053 8.8136 62.4578 9.07966 62.5606C9.3484 62.6646 9.58509 62.8086 9.78085 62.986C9.98017 63.1656 10.1377 63.3706 10.2507 63.5971C10.3637 63.8217 10.426 64.0615 10.4375 64.3083L10.442 64.4016H9.14819L9.13484 64.3289C9.10636 64.1761 9.04762 64.0332 8.96043 63.9044C8.875 63.7773 8.76376 63.6734 8.63118 63.598C8.49948 63.5226 8.34288 63.4842 8.16492 63.4842C7.94956 63.4842 7.75113 63.5401 7.57762 63.6503C7.40499 63.7596 7.26528 63.9398 7.16296 64.1849C7.05884 64.4354 7.00634 64.7721 7.00634 65.1876C7.00634 65.5259 7.04105 65.8083 7.10956 66.0286C7.17629 66.2453 7.26796 66.4184 7.38095 66.5436C7.49309 66.6681 7.62033 66.7559 7.76092 66.8048C7.90329 66.8571 8.05368 66.8838 8.2085 66.8838C8.35177 66.8838 8.48079 66.8598 8.59203 66.8136C8.70414 66.7656 8.80203 66.7034 8.88211 66.628C8.96309 66.5517 9.02716 66.4681 9.07164 66.3811C9.11793 66.2933 9.14639 66.2063 9.15708 66.1218L9.18734 65.9016ZM13.6612 62.4061C14.1657 62.4061 14.6115 62.5206 14.9852 62.7462C15.3608 62.9736 15.6562 63.3012 15.8608 63.7203C16.0637 64.135 16.1669 64.6377 16.1669 65.2133C16.1669 65.7807 16.0655 66.2781 15.8644 66.6918C15.6615 67.1093 15.3679 67.4352 14.9915 67.6606C14.6177 67.8863 14.1693 67.9998 13.6603 67.9998C13.1468 67.9998 12.6957 67.8854 12.3202 67.6606C11.9447 67.4369 11.6484 67.1127 11.4419 66.6953C11.239 66.2823 11.1358 65.7841 11.1358 65.2141C11.1358 64.6413 11.2399 64.1395 11.4464 63.724C11.6537 63.3048 11.9509 62.977 12.3291 62.7488C12.7073 62.5214 13.1549 62.4061 13.6612 62.4061ZM13.6612 66.9458C13.9005 66.9458 14.1097 66.889 14.2823 66.7771C14.454 66.6651 14.5893 66.4831 14.6854 66.238C14.7824 65.9841 14.8322 65.644 14.8322 65.2283C14.8322 64.8012 14.7815 64.453 14.6827 64.1928C14.5875 63.9398 14.4514 63.7523 14.2787 63.6351C14.1043 63.5187 13.897 63.4593 13.6621 63.4593C13.4263 63.4593 13.218 63.5187 13.0436 63.6351C12.8701 63.7514 12.7322 63.9398 12.6352 64.1946C12.5346 64.4566 12.4839 64.8038 12.4839 65.2274C12.4839 65.644 12.5346 65.9841 12.6343 66.2371C12.7313 66.4831 12.8683 66.6651 13.0418 66.7761C13.2154 66.889 13.4236 66.9458 13.6612 66.9458ZM18.7535 66.3179L17.433 62.4974H16.2335L18.0879 67.9083H19.4155L21.286 62.4974H20.0847L18.7535 66.3179ZM25.2488 65.7121H23.042V66.8277L25.6226 66.8311V67.9083H21.8078V62.4974H25.586L25.5826 63.5667H23.0483V64.6572H25.2488V65.7121ZM30.0665 65.3845C30.2133 65.2531 30.3335 65.0843 30.4261 64.8828C30.5159 64.6829 30.5621 64.4369 30.5621 64.1502C30.5621 63.8294 30.4955 63.5427 30.3629 63.2967C30.2302 63.0462 30.0202 62.8482 29.7374 62.7061C29.4588 62.5675 29.1003 62.4974 28.6713 62.4974H26.3703V67.9066H27.6044V65.8915H28.5129L29.3681 67.9066H30.6637L29.6671 65.6661C29.8113 65.5896 29.9456 65.4946 30.0665 65.3845ZM29.3137 64.1759C29.3137 64.39 29.2417 64.5595 29.0941 64.6962C28.9462 64.8312 28.7407 64.8996 28.4819 64.8996H27.6044V63.484H28.5592C28.7816 63.484 28.9606 63.5453 29.1046 63.6715C29.2454 63.7949 29.3137 63.9601 29.3137 64.1759ZM32.5621 62.4974L34.8179 65.761V62.4974H36.0556V67.9083H34.9657L32.6129 64.5098V67.9083H31.3788V62.4974H32.5621ZM39.8369 66.0248L38.7033 62.4974H37.0117V67.9083H38.2565V64.4228L39.3545 67.9083H40.3156L41.4217 64.4033V67.9083H42.6701V62.4974H40.982L39.8369 66.0248ZM47.0641 65.7121H44.8574V66.8277L47.4386 66.8311V67.9083H43.6231V62.4974H47.4022L47.3977 63.5667H44.8653V64.6572H47.0641V65.7121ZM51.6699 65.761L49.415 62.4974H48.2306V67.9083H49.4641V64.5098L51.8167 67.9083H52.9068V62.4974H51.6699V65.761ZM55.0098 63.6173H53.4266V62.4974H57.7985V63.6173H56.252V67.9083H55.0098V63.6173Z" fill="#002664"></path>
                           <path fill-rule="evenodd" clip-rule="evenodd" d="M35.4356 52.8363C35.118 52.3231 34.6391 51.8568 34.0127 51.4509C33.3872 51.0451 32.5348 50.7352 31.482 50.5301L28.551 49.9271C27.6656 49.7362 27.0551 49.4894 26.7364 49.1945C26.4259 48.9067 26.2684 48.524 26.2684 48.0569C26.2684 47.7594 26.3361 47.4886 26.4705 47.2514C26.604 47.0133 26.7979 46.8029 27.0463 46.6252C27.2961 46.4478 27.6069 46.3074 27.969 46.2089C28.3356 46.1084 28.7475 46.0578 29.1934 46.0578C29.7806 46.0578 30.3101 46.1351 30.7676 46.2888C31.2195 46.4416 31.5941 46.6919 31.8806 47.0347C32.1673 47.3776 32.3434 47.8436 32.4039 48.4201L32.412 48.5H36.0486L36.0469 48.4085C36.0309 47.4281 35.7531 46.5286 35.2219 45.7355C34.6899 44.9416 33.906 44.3039 32.8907 43.8386C31.878 43.3749 30.6144 43.1396 29.1347 43.1396C27.8916 43.1396 26.7525 43.3563 25.7479 43.7844C24.7406 44.2134 23.9318 44.8323 23.3454 45.6245C22.7563 46.421 22.4626 47.3739 22.4715 48.4582C22.4956 49.7814 22.8978 50.8552 23.6666 51.6517C24.4327 52.4439 25.4829 52.9713 26.7881 53.2173L29.7441 53.8194C30.2861 53.927 30.7781 54.068 31.2062 54.2394C31.6262 54.4074 31.9616 54.6258 32.2029 54.8887C32.4386 55.1452 32.5579 55.4827 32.5579 55.8894C32.5579 56.3424 32.4092 56.7251 32.1165 57.0254C31.8165 57.3326 31.4091 57.5643 30.9073 57.7162C30.3956 57.8707 29.8234 57.9489 29.2067 57.9489C28.6052 57.9489 28.0509 57.8557 27.5597 57.671C27.0711 57.4889 26.661 57.2225 26.3406 56.8796C26.0211 56.5387 25.8021 56.1114 25.6892 55.6115L25.6731 55.5414H21.967L21.9768 55.64C22.064 56.5068 22.3336 57.2748 22.7776 57.9241C23.2208 58.5689 23.7885 59.1123 24.4648 59.5421C25.1393 59.9692 25.8956 60.2951 26.7135 60.5092C27.5293 60.7222 28.3729 60.8306 29.2191 60.8306C30.6047 60.8306 31.8334 60.6123 32.8719 60.1805C33.9148 59.7472 34.7398 59.1504 35.3252 58.4071C35.9151 57.6586 36.2141 56.8051 36.2141 55.8682C36.2141 55.4259 36.1644 54.9339 36.0647 54.4064C35.9623 53.8745 35.7506 53.3461 35.4356 52.8363ZM9.55796 49.0921L17.4686 60.5161H20.6863V43.4324H17.0869V54.4214L9.51881 43.4707L9.49211 43.4324H5.96924V60.5161H9.55796V49.0921ZM51.6945 54.3586L54.7776 43.4328H58.3041L53.2498 60.5165H50.3854L47.2667 49.7017L44.1255 60.5165H41.3083L36.2655 43.4328H39.8036L42.8859 54.3569L45.9692 43.4328H48.5764L51.6945 54.3586Z" fill="#002664"></path>
                           <path d="M30.2054 39.194C25.9733 38.6746 21.8623 40.0306 14.6288 38.0663C13.8903 37.8655 13.618 38.6435 14.0175 39.2954C15.9609 42.4675 25.7776 39.9818 30.2249 39.5236C30.4191 39.5033 30.3994 39.218 30.2054 39.194Z" fill="#D7153A"></path>
                           <path d="M48.7291 38.0663C41.4957 40.0306 37.3846 38.6746 33.1525 39.194C32.9586 39.218 32.9382 39.5041 33.133 39.5236C37.5813 39.9818 47.3971 42.4675 49.3405 39.2954C49.7399 38.6435 49.4678 37.8655 48.7291 38.0663Z" fill="#D7153A"></path>
                           <path d="M16.8318 33.5283C15.3609 31.373 14.1588 28.9618 13.228 26.3092C10.4206 27.1289 7.54729 28.3118 4.62238 29.8597C4.2442 30.0594 4.01195 30.4342 4.00039 30.8604C3.98971 31.2869 4.20149 31.6722 4.56899 31.8916C10.2328 35.2777 15.7703 37.2147 21.0541 37.6629C19.4809 36.704 18.0385 35.2964 16.8318 33.5283Z" fill="#D7153A"></path>
                           <path d="M8.94099 26.3242C10.2366 25.8064 11.5206 25.3624 12.7931 24.9885C12.3375 23.5108 11.9638 21.9629 11.6683 20.3475C10.2054 20.1655 8.69184 20.0474 7.12571 19.9959C7.11236 19.9959 7.09813 19.995 7.08478 19.995C6.67457 19.995 6.3044 20.201 6.08906 20.5527C5.8666 20.915 5.85681 21.3546 6.06325 21.7276C6.97267 23.3687 7.9328 24.9006 8.94099 26.3242Z" fill="#D7153A"></path>
                           <path d="M22.8584 37.0512C23.7366 37.4384 24.6354 37.655 25.5064 37.7002C23.3736 36.1745 21.698 33.5877 20.7325 30.2902C19.4885 26.0454 19.073 21.3618 19.4832 16.3087C17.805 15.2511 15.9861 14.2609 14.0276 13.3409C13.6494 13.1632 13.217 13.1979 12.8699 13.4332C12.5238 13.6677 12.3325 14.0557 12.3583 14.4705C12.8139 21.8023 14.7048 27.9521 17.9776 32.7485C19.3497 34.7609 21.0378 36.2482 22.8584 37.0512Z" fill="#D7153A"></path>
                           <path d="M27.0331 13.0522C26.0291 11.8356 24.9401 10.6323 23.7646 9.44317C23.5368 9.21227 23.2432 9.08972 22.9397 9.08972C22.8312 9.08972 22.7217 9.10571 22.6131 9.13768C22.2012 9.25934 21.9031 9.58881 21.8132 10.0195C21.5836 11.126 21.1467 13.3817 20.9536 15.6125C22.4565 16.6009 23.8447 17.6462 25.1163 18.7456C25.6091 16.8691 26.2499 14.9678 27.0331 13.0522Z" fill="#D7153A"></path>
                           <path d="M58.733 29.8587C55.808 28.3108 52.9349 27.1279 50.1273 26.3082C49.1966 28.9609 47.9945 31.372 46.5234 33.5273C45.317 35.2962 43.8744 36.703 42.3003 37.6621C47.5841 37.2136 53.1217 35.2767 58.7855 31.8905C59.153 31.6711 59.3656 31.2858 59.354 30.8596C59.3444 30.4332 59.1112 30.0595 58.733 29.8587Z" fill="#D7153A"></path>
                           <path d="M54.4155 26.3242C55.4237 24.9007 56.3839 23.3679 57.2933 21.7267C57.4997 21.3538 57.4909 20.9151 57.2674 20.5518C57.052 20.2011 56.682 19.9941 56.2718 19.9941C56.2583 19.9941 56.2442 19.9941 56.2309 19.995C54.6647 20.0465 53.1501 20.1655 51.6883 20.3467C51.3936 21.9621 51.019 23.51 50.5635 24.9877C51.8359 25.3624 53.1208 25.8074 54.4155 26.3242Z" fill="#D7153A"></path>
                           <path d="M42.6244 30.291C41.6591 33.5876 39.9825 36.1753 37.8506 37.701C38.7217 37.6558 39.6212 37.4381 40.4987 37.0509C42.3193 36.2482 44.0072 34.7606 45.3795 32.7491C48.6523 27.9528 50.5432 21.803 50.9987 14.4712C51.0247 14.0565 50.8333 13.6684 50.487 13.4339C50.1401 13.1986 49.7077 13.164 49.3294 13.3416C47.3709 14.2607 45.552 15.2509 43.8737 16.3095C44.2841 21.3625 43.8675 26.0452 42.6244 30.291Z" fill="#D7153A"></path>
                           <path d="M42.403 15.6115C42.2099 13.3816 41.773 11.1259 41.5435 10.0185C41.4544 9.58783 41.1554 9.25837 40.7436 9.1367C40.6349 9.10473 40.5254 9.08875 40.417 9.08875C40.1136 9.08875 39.8198 9.2113 39.592 9.44219C38.4167 10.6313 37.3274 11.8346 36.3237 13.0513C37.1067 14.9668 37.7474 16.8681 38.2414 18.7437C39.5129 17.6452 40.9 16.5999 42.403 15.6115Z" fill="#D7153A"></path>
                           <path d="M31.6738 26.6918C33.0966 23.8865 35.3693 21.3715 37.0759 19.7828C36.139 15.973 34.6965 12.379 32.7051 8.61898C32.4996 8.2309 32.1133 8 31.6746 8C31.236 8 30.8507 8.23178 30.6443 8.61898C28.6324 12.3914 27.165 16.1453 26.2778 19.7819C28.0592 21.4292 30.4093 24.1156 31.6738 26.6918Z" fill="#D7153A"></path>
                           <path d="M36.9017 36.647C38.377 35.6113 39.8524 33.8068 40.7886 31.2963C42.601 26.436 42.7887 21.0224 42.529 17.1913C39.2438 19.3804 34.0294 23.9521 32.2487 28.8399C31.4106 31.14 31.0199 34.2731 31.6658 36.0208C31.9356 36.7518 32.3946 37.3059 33.0254 37.5695C33.9812 37.9691 35.4494 37.6672 36.9017 36.647Z" fill="#D7153A"></path>
                           <path d="M30.9385 28.4131C30.5041 27.4007 30.0254 26.446 29.2825 25.3732C27.1806 22.3387 24.3483 19.6018 20.8237 17.1907C20.7872 17.759 20.2729 23.8973 22.0774 29.8987C23.4505 34.4634 25.7961 36.323 27.0818 37.0415C28.3756 37.7634 29.5591 37.934 30.9473 37.5894C29.5405 35.6748 29.7158 31.7458 30.9385 28.4131Z" fill="#D7153A"></path>
                        </g>
                        <path d="M177.268 47.7142V49.2246C177.268 49.8389 176.757 50.343 176.136 50.343H171.107V65.738C171.107 66.3544 170.595 66.8565 169.974 66.8565H167.72C167.097 66.8565 166.587 66.3544 166.587 65.738V50.343H161.558C160.935 50.343 160.423 49.8389 160.423 49.2246V47.7142C160.423 47.0998 160.933 46.5957 161.558 46.5957H176.134C176.755 46.5957 177.266 47.0978 177.266 47.7142H177.268ZM266.595 60.246C266.595 59.5844 266.661 58.968 266.797 58.4029C266.933 57.8338 267.156 57.3395 267.474 56.9142C267.79 56.4908 268.207 56.1501 268.727 55.906H268.731C269.246 55.6618 269.88 55.5358 270.631 55.5358C270.659 55.5358 270.687 55.5397 270.715 55.5417H270.963C271.586 55.5417 272.095 55.0395 272.095 54.4251V52.9128C272.095 52.7789 272.069 52.6489 272.025 52.5308C271.874 52.1251 271.492 51.8298 271.036 51.7983H270.985C270.679 51.8101 270.381 51.8475 270.089 51.9144C269.884 51.9696 269.706 52.0227 269.706 52.0227C269.226 52.1763 268.777 52.387 268.353 52.6608C267.932 52.9364 267.556 53.2653 267.23 53.6532C266.903 54.0431 266.643 54.4626 266.453 54.9155L266.399 54.9135L266.395 53.3106C266.395 52.6962 265.89 52.1921 265.264 52.1921H263.644C263.023 52.1921 262.511 52.6962 262.511 53.3106V65.74C262.511 66.3564 263.023 66.8585 263.644 66.8585H265.464C266.089 66.8585 266.597 66.3564 266.597 65.74V60.248L266.595 60.246ZM178.885 60.246C178.885 59.5844 178.953 58.968 179.085 58.4029C179.22 57.8357 179.446 57.3395 179.764 56.9142C180.082 56.4888 180.499 56.1501 181.017 55.904H181.019C181.536 55.6578 182.17 55.5338 182.919 55.5338C182.947 55.5338 182.979 55.5377 183.003 55.5397H183.25C183.874 55.5397 184.383 55.0375 184.383 54.4232V52.9108C184.383 52.7769 184.357 52.647 184.313 52.5288C184.164 52.1232 183.78 51.8278 183.326 51.7983H183.276C182.971 51.8081 182.669 51.8475 182.377 51.9125C182.172 51.9676 181.994 52.0208 181.994 52.0208C181.514 52.1744 181.065 52.3851 180.643 52.6588C180.22 52.9345 179.846 53.2633 179.518 53.6513C179.193 54.0411 178.933 54.4626 178.741 54.9135L178.687 54.9115V53.3106C178.687 52.6962 178.178 52.1921 177.554 52.1921H175.934C175.31 52.1921 174.801 52.6962 174.801 53.3106V65.738C174.801 66.3544 175.31 66.8565 175.934 66.8565H177.754C178.377 66.8565 178.887 66.3544 178.887 65.738V60.246H178.885ZM213.74 55.3526C213.576 54.6043 213.292 53.9722 212.891 53.4504C212.487 52.9325 211.934 52.5249 211.234 52.2315C210.535 51.9381 209.636 51.7924 208.543 51.7924C207.678 51.7924 206.833 51.9873 206.01 52.3733C205.184 52.7612 204.511 53.3815 203.992 54.2322H203.908V53.2102C203.908 52.6489 203.396 52.1901 202.773 52.1901H201.155C200.531 52.1901 200.02 52.6923 200.02 53.3066V65.742C200.02 66.3583 200.533 66.8605 201.155 66.8605H202.975C203.598 66.8605 204.11 66.3583 204.11 65.742V59.1708C204.11 57.7865 204.325 56.7665 204.755 56.1048C204.787 56.0517 204.823 56.0005 204.855 55.9532C205.356 55.2975 206.163 54.9726 207.276 54.9726C208.253 54.9726 208.937 55.2719 209.32 55.8685C209.704 56.4613 209.896 57.3671 209.896 58.5781V65.7459C209.896 66.3623 210.405 66.8644 211.029 66.8644H212.853C213.476 66.8644 213.986 66.3623 213.986 65.7459V58.9582C213.986 56.3018 213.78 55.5338 213.742 55.3605L213.74 55.3526ZM228.297 60.4981C228.022 60.0333 227.668 59.6434 227.222 59.3264C226.777 59.0153 226.271 58.7593 225.7 58.5702C225.13 58.3812 224.545 58.2178 223.946 58.0839C223.364 57.9519 222.795 57.8279 222.235 57.7137C221.674 57.6014 221.176 57.4695 220.743 57.3277C220.307 57.1839 219.954 56.9988 219.684 56.7704C219.414 56.544 219.278 56.2466 219.278 55.8843C219.278 55.5791 219.356 55.3369 219.512 55.1557C219.664 54.9765 219.854 54.8367 220.078 54.7422C220.299 54.6457 220.545 54.5846 220.817 54.5551C221.087 54.5295 221.338 54.5138 221.568 54.5138C222.303 54.5138 222.939 54.6516 223.482 54.9273C223.826 55.1045 224.074 55.3822 224.221 55.7642C224.227 55.778 224.231 55.7917 224.235 55.8055C224.405 56.2171 224.815 56.5125 225.29 56.5125H227.154C227.782 56.5125 228.203 56.0182 228.088 55.4078C228.088 55.4078 227.984 54.8406 227.588 54.244C227.19 53.6414 226.693 53.1609 226.092 52.7986C225.494 52.4382 224.811 52.1803 224.05 52.0267C223.284 51.8751 222.497 51.8002 221.686 51.8002C220.875 51.8002 220.084 51.8711 219.31 52.0129C218.537 52.1547 217.84 52.4028 217.222 52.7572C216.605 53.1078 216.106 53.5882 215.73 54.1987C215.352 54.8072 215.166 55.5909 215.166 56.544C215.166 57.1899 215.302 57.7353 215.57 58.1843C215.842 58.6333 216.199 59.0035 216.643 59.2969C217.087 59.5942 217.594 59.8305 218.165 60.0117C218.735 60.1948 219.318 60.3504 219.92 60.4843C221.388 60.7915 222.533 61.0947 223.354 61.398C224.175 61.7032 224.587 62.1601 224.587 62.7685C224.587 63.1328 224.499 63.4321 224.325 63.6704C224.151 63.9087 223.934 64.0997 223.672 64.2395C223.414 64.3832 223.122 64.4896 222.803 64.5546C222.485 64.6215 222.181 64.655 221.89 64.655C221.484 64.655 221.095 64.6058 220.719 64.5112C220.343 64.4187 219.996 64.2848 219.716 64.0701C219.292 63.7433 219.202 63.5975 219.007 63.2982C218.783 62.9497 218.775 62.2624 217.772 62.1699H215.958C215.33 62.1699 214.891 62.6701 214.979 63.2825C214.979 63.2825 215.083 63.9815 215.498 64.6412C215.914 65.2969 216.445 65.8267 217.093 66.2264C217.74 66.6261 218.479 66.9117 219.31 67.083C220.139 67.2543 220.991 67.3409 221.86 67.3409C222.729 67.3409 223.546 67.2582 224.367 67.0968C225.188 66.9353 225.92 66.6537 226.555 66.254C227.192 65.8523 227.71 65.3265 228.106 64.6688C228.503 64.0111 228.701 63.1939 228.701 62.225C228.701 61.5398 228.565 60.9648 228.297 60.4961V60.4981ZM245.97 59.545C245.97 60.7186 246.151 61.778 246.515 62.7213C246.881 63.6704 247.398 64.4778 248.071 65.1493C248.743 65.8207 249.548 66.3367 250.489 66.6951C251.428 67.0554 252.485 67.2346 253.656 67.2346C254.827 67.2346 255.888 67.0554 256.839 66.6951C257.788 66.3347 258.599 65.8207 259.27 65.1493C259.942 64.4797 260.459 63.6704 260.825 62.7213C261.186 61.778 261.37 60.7186 261.37 59.545C261.37 58.3714 261.186 57.308 260.825 56.353C260.457 55.3979 259.94 54.5846 259.27 53.9112C258.599 53.2436 257.788 52.7218 256.839 52.3496C255.888 51.9814 254.827 51.7983 253.656 51.7983C252.485 51.7983 251.428 51.9814 250.489 52.3496C249.548 52.7198 248.743 53.2417 248.071 53.9112C247.398 54.5846 246.881 55.3959 246.515 56.353C246.153 57.308 245.97 58.3733 245.97 59.545ZM250.056 59.545C250.056 58.9601 250.115 58.3812 250.229 57.8161C250.343 57.247 250.541 56.7468 250.819 56.3116C251.096 55.8744 251.468 55.522 251.928 55.2463C252.389 54.9726 252.967 54.8328 253.656 54.8328C254.345 54.8328 254.927 54.9726 255.398 55.2463C255.868 55.52 256.241 55.8744 256.519 56.3116C256.797 56.7448 256.995 57.247 257.11 57.8161C257.228 58.3812 257.282 58.9582 257.282 59.545C257.282 60.1318 257.228 60.7048 257.11 61.2641C256.997 61.8214 256.797 62.3235 256.519 62.7685C256.243 63.2116 255.868 63.568 255.398 63.8338C254.927 64.0957 254.347 64.2297 253.656 64.2297C252.965 64.2297 252.387 64.0957 251.928 63.8338C251.468 63.568 251.096 63.2136 250.819 62.7685C250.541 62.3255 250.345 61.8214 250.229 61.2641C250.115 60.7048 250.056 60.1338 250.056 59.545ZM244.897 59.6887C244.897 60.6714 244.763 61.6166 244.493 62.5283C244.227 63.4341 243.818 64.2356 243.272 64.9386C242.725 65.6376 242.042 66.1969 241.228 66.6124C240.411 67.0278 239.456 67.2366 238.363 67.2366C237.44 67.2366 236.593 67.0495 235.816 66.6832C235.628 66.5946 235.45 66.4962 235.278 66.3859C235.258 66.3721 235.244 66.3583 235.226 66.3485C235.096 66.2638 234.975 66.1693 234.855 66.0728C234.723 65.9606 234.653 65.8857 234.653 65.8857C234.383 65.5844 234.141 65.3225 234.002 65.1749C233.97 65.1315 233.934 65.0922 233.902 65.0488H233.844V70.8835C233.844 71.4979 233.334 72 232.711 72H230.891C230.269 72 229.758 71.4979 229.758 70.8835V53.3106C229.758 52.6962 230.267 52.196 230.891 52.196H232.509C233.134 52.196 233.644 52.6174 233.644 53.1334V54.0687H233.698C234.199 53.2751 234.835 52.6962 235.602 52.3378C236.369 51.9794 237.214 51.7983 238.133 51.7983C239.304 51.7983 240.313 52.0149 241.158 52.4501C242 52.8872 242.701 53.4642 243.26 54.181C243.816 54.9017 244.229 55.7366 244.495 56.6917C244.765 57.6487 244.899 58.647 244.899 59.6868L244.897 59.6887ZM240.809 59.5745C240.809 58.9897 240.747 58.4107 240.621 57.8456C240.499 57.2765 240.289 56.7704 240.004 56.3254C239.716 55.8823 239.344 55.5239 238.895 55.2483C238.445 54.9745 237.892 54.8347 237.24 54.8347C236.589 54.8347 236.004 54.9745 235.554 55.2483C235.102 55.522 234.739 55.8764 234.461 56.3136C234.183 56.7468 233.986 57.2489 233.872 57.8161C233.754 58.3832 233.696 58.97 233.696 59.5745C233.696 60.1791 233.76 60.7383 233.886 61.3054C234.01 61.8725 234.211 62.3708 234.491 62.7961C234.771 63.2214 235.138 63.566 235.6 63.8279C236.06 64.0938 236.617 64.2277 237.27 64.2277C237.924 64.2277 238.501 64.0938 238.953 63.8279C239.404 63.566 239.77 63.2214 240.046 62.7961C240.323 62.3708 240.521 61.8725 240.637 61.3054C240.751 60.7363 240.809 60.1613 240.809 59.5745ZM273.004 63.3967C273.004 64.1371 273.128 64.7318 273.376 65.1847C273.628 65.6396 273.968 65.9901 274.399 66.2362C274.831 66.4804 275.332 66.6478 275.898 66.7305C276.181 66.7738 276.473 66.8053 276.775 66.827L276.757 66.8309H276.917C277.174 66.8467 277.43 66.8605 277.698 66.8605C278.083 66.8605 279.012 66.827 279.042 66.825C279.626 66.7778 280.089 66.2993 280.089 65.7164V64.8184C280.089 64.2119 279.59 63.7137 278.979 63.6999H278.627C278.049 63.6803 277.648 63.5719 277.442 63.3672C277.214 63.1407 277.096 62.6858 277.096 62.0065V54.7422H279.332C279.75 54.7422 280.091 54.4074 280.091 53.9939V52.7927C280.091 52.3831 279.748 52.0464 279.332 52.0464H277.096V48.7677C277.096 48.1513 276.587 47.6492 275.964 47.6492H274.143C273.52 47.6492 273.01 48.1513 273.01 48.7677V63.3967H273.004ZM185.091 55.4156C184.757 56.3943 185.524 56.7094 186.134 56.7094H187.822C189.398 56.7094 188.793 55.7031 189.764 55.008C190.227 54.6733 190.859 54.4941 191.664 54.4941C192.028 54.4941 192.367 54.5197 192.685 54.5669C193.001 54.6142 193.28 54.7087 193.52 54.8505C193.76 54.9923 193.952 55.1911 194.098 55.4471C194.241 55.7031 194.313 56.0477 194.313 56.4829C194.333 56.8984 194.209 57.2174 193.94 57.434C193.67 57.6506 193.306 57.818 192.845 57.9303C192.387 58.0445 191.858 58.1292 191.264 58.1863C190.667 58.2434 190.062 58.3202 189.45 58.4127C188.835 58.5072 188.225 58.6352 187.62 58.7967C187.017 58.9582 186.479 59.1964 186.008 59.5194C185.538 59.8404 185.155 60.2696 184.857 60.8092C184.557 61.3488 184.409 62.034 184.409 62.869C184.409 63.6251 184.541 64.2749 184.801 64.8263C185.057 65.3757 185.418 65.8306 185.878 66.187C186.339 66.5474 186.875 66.8132 187.49 66.9806C188.104 67.1539 188.765 67.2366 189.476 67.2366C190.397 67.2366 191.298 67.1027 192.183 66.8388C193.067 66.573 193.834 66.1122 194.485 65.4486C194.505 65.6967 194.525 65.9409 194.587 66.1752C194.773 66.8683 195.642 66.8683 195.642 66.8683H197.788C198.823 66.8683 198.593 66.1142 198.517 65.5076C198.441 64.9031 198.401 64.269 198.401 63.6074V57.0914C198.401 56.477 198.337 55.4767 198.263 54.8643C198.263 54.8643 198.199 54.372 197.798 53.8324C197.396 53.2929 196.877 52.8715 196.241 52.5682C195.608 52.265 194.909 52.0621 194.14 51.9558C193.372 51.8534 192.615 51.8022 191.866 51.8022C191.041 51.8022 190.219 51.8829 189.404 52.0424C188.589 52.2039 187.854 52.4737 187.201 52.8518C186.547 53.2298 186.01 53.732 185.588 54.3542C185.376 54.6693 185.222 55.0238 185.091 55.4176V55.4156ZM194.311 59.6887V60.0747C194.311 60.691 194.301 61.4295 194.285 61.7209L194.239 62.099C194.189 62.4771 194.062 62.8512 193.85 63.2195C193.638 63.5877 193.314 63.9047 192.871 64.1706C192.429 64.4364 191.806 64.5683 191.001 64.5683C190.673 64.5683 190.357 64.5388 190.052 64.4856C189.744 64.4285 189.474 64.3281 189.244 64.1863C189.015 64.0445 188.833 63.8516 188.699 63.6035C188.563 63.3593 188.497 63.056 188.497 62.6957C188.497 62.3353 188.563 62.0045 188.699 61.7603C188.833 61.5122 189.011 61.3113 189.232 61.1499C189.452 60.9884 189.712 60.8624 190.01 60.7659C190.307 60.6714 190.607 60.5965 190.915 60.5394C191.24 60.4823 191.566 60.4351 191.892 60.3957C192.221 60.3583 192.531 60.311 192.829 60.2559C193.125 60.1988 193.402 60.1279 193.664 60.0412C193.922 59.9546 194.138 59.8384 194.311 59.6887Z" fill="#939598"></path>
                        <path d="M91.7099 63.5937C91.63 63.6705 91.582 63.7768 91.582 63.893V63.8969C91.582 64.1273 91.7718 64.3164 92.0076 64.3164C92.0855 64.3164 92.1575 64.2967 92.2194 64.2612L92.2554 64.2297C98.1375 59.0134 107.79 51.7412 120.423 52.3654C125.326 52.6057 129.772 54.1318 133.824 56.416C137.998 58.7692 145.836 66.573 145.836 66.573C147.104 67.851 148.885 68.6544 150.825 68.6663C150.825 68.6663 151.948 68.6446 152.911 68.3394C153.192 68.2508 153.316 68.1996 153.316 68.1996C153.864 67.9731 157.084 66.4273 156.609 62.42C156.415 60.7915 155.596 59.1414 154.047 57.6704C153.708 57.3475 142.469 44.8294 121.058 46.7927C107.009 48.6831 97.2244 57.2155 91.7099 63.5937Z" fill="url(#paint0_linear_2232_2704)"></path>
                        <path d="M92.4232 63.9816C92.3832 64.1726 92.2114 64.3164 92.0076 64.3164C91.7738 64.3164 91.582 64.1293 91.582 63.8969C91.582 63.8969 91.582 63.8615 91.586 63.8438C91.8218 60.6537 97.4222 30.6455 103.464 68.0578C103.464 68.0578 103.472 68.1307 103.476 68.1819C103.482 68.2784 103.454 68.3689 103.454 68.3689C103.392 68.6072 103.152 68.6742 102.957 68.6289C102.795 68.5914 102.663 68.4772 102.627 68.3059C102.627 68.3059 99.6759 53.9664 96.4352 54.1259C95.0446 54.2224 94.0356 56.7232 92.4372 63.9206C92.4332 63.9403 92.4252 63.9816 92.4252 63.9816H92.4232Z" fill="url(#paint1_linear_2232_2704)"></path>
                        <path d="M157.58 59.4111C157.176 57.7117 148.485 19.4191 127.794 24.4563C123.078 25.6024 119.434 29.6234 116.465 33.5184C108.473 44.0161 103.758 63.7827 102.641 68.1168C102.569 68.3905 102.739 68.5815 102.956 68.6308C103.152 68.6761 103.39 68.6091 103.454 68.3708C104.065 66.0492 105.762 60.4016 106.577 58.1725C109.23 50.6483 117.154 36.8503 125.756 36.933C137.106 37.0393 142.551 57.7609 144.095 63.5365C144.838 66.4529 147.612 68.6505 150.828 68.6682C154.691 68.682 157.841 65.614 157.859 61.8017C157.859 61.4827 157.827 60.4429 157.582 59.4111H157.58Z" fill="url(#paint2_linear_2232_2704)"></path>
                        <path d="M155.995 61.7406C155.981 64.5782 153.638 66.8644 150.759 66.8526C147.879 66.8368 145.56 64.527 145.574 61.6934C145.588 58.8558 147.931 56.5656 150.809 56.5814C153.69 56.5932 156.009 58.905 155.993 61.7406H155.995Z" fill="#21A6DF"></path>
                        <defs>
                           <linearGradient id="paint0_linear_2232_2704" x1="91.582" y1="57.6251" x2="156.659" y2="57.6251" gradientUnits="userSpaceOnUse">
                              <stop stop-color="#E41F2E"></stop>
                              <stop offset="0.22" stop-color="#E74628"></stop>
                              <stop offset="0.39" stop-color="#EA5F25"></stop>
                              <stop offset="0.5" stop-color="#EB6824"></stop>
                              <stop offset="1" stop-color="#F9B916"></stop>
                           </linearGradient>
                           <linearGradient id="paint1_linear_2232_2704" x1="91.582" y1="59.0429" x2="103.476" y2="59.0429" gradientUnits="userSpaceOnUse">
                              <stop stop-color="#95C13D"></stop>
                              <stop offset="0.13" stop-color="#8CBE3D"></stop>
                              <stop offset="0.33" stop-color="#73B940"></stop>
                              <stop offset="0.59" stop-color="#4BAF44"></stop>
                              <stop offset="0.89" stop-color="#15A349"></stop>
                              <stop offset="1" stop-color="#009E4C"></stop>
                           </linearGradient>
                           <linearGradient id="paint2_linear_2232_2704" x1="102.623" y1="46.3338" x2="157.857" y2="46.3338" gradientUnits="userSpaceOnUse">
                              <stop stop-color="#21A6DF"></stop>
                              <stop offset="0.22" stop-color="#158FCE"></stop>
                              <stop offset="0.48" stop-color="#0B7ABF"></stop>
                              <stop offset="0.75" stop-color="#056EB6"></stop>
                              <stop offset="1" stop-color="#036AB4"></stop>
                           </linearGradient>
                           <clipPath id="clip0_2232_2704">
                              <rect width="55.5" height="60" fill="white" transform="translate(4 8)"></rect>
                           </clipPath>
                        </defs>
                     </svg>
