<?xml version="1.0" encoding="UTF-8" standalone="no"?>
<!-- Created with Inkscape (http://www.inkscape.org/) -->

<svg
   version="1.1"
   id="svg1"
   width="768"
   height="768"
   viewBox="0 0 768 768"
   sodipodi:docname="bhp-seeklogo.ai"
   inkscape:version="1.4.1-rc (06eac75fbf, 2025-03-29)"
   xmlns:inkscape="http://www.inkscape.org/namespaces/inkscape"
   xmlns:sodipodi="http://sodipodi.sourceforge.net/DTD/sodipodi-0.dtd"
   xmlns="http://www.w3.org/2000/svg"
   xmlns:svg="http://www.w3.org/2000/svg">
  <defs
     id="defs1">
    <clipPath
       clipPathUnits="userSpaceOnUse"
       id="clipPath2">
      <path
         d="M 0,576 H 576 V 0 H 0 Z"
         transform="translate(-97.527505,-353.86161)"
         id="path2" />
    </clipPath>
  </defs>
  <sodipodi:namedview
     id="namedview1"
     pagecolor="#ffffff"
     bordercolor="#000000"
     borderopacity="0.25"
     inkscape:showpageshadow="2"
     inkscape:pageopacity="0.0"
     inkscape:pagecheckerboard="0"
     inkscape:deskcolor="#d1d1d1"
     inkscape:zoom="1.1888021"
     inkscape:cx="383.57941"
     inkscape:cy="384"
     inkscape:window-width="1920"
     inkscape:window-height="1163"
     inkscape:window-x="0"
     inkscape:window-y="0"
     inkscape:window-maximized="1"
     inkscape:current-layer="layer-MC0">
    <inkscape:page
       x="0"
       y="0"
       inkscape:label="1"
       id="page1"
       width="768"
       height="768"
       margin="252.088 19.517334 239.12666 23.149334"
       bleed="0" />
  </sodipodi:namedview>
  <g
     id="layer-MC0"
     inkscape:groupmode="layer"
     inkscape:label="Layer 1">
    <path
       id="path1"
       d="M 0,0 H -29.182 V -42.793 H 0 c 13.522,0 20.484,10.085 20.484,21.399 C 20.484,-10.08 13.522,0 0,0 m 4.96,-81.034 h -34.142 v -40.059 H 4.96 c 13.204,0 20.491,8.97 20.491,20.03 0,11.06 -9.177,20.029 -20.491,20.029 m 73.93,-27.311 c 0,-34.272 -30.546,-56.451 -63.738,-56.451 H -80.166 V 42.793 h 92.183 c 33.823,0 61.913,-24.866 61.913,-55.542 0,-24.275 -11.367,-37.308 -27.068,-47.122 C 65.008,-67.7 78.89,-79.387 78.89,-108.345 M 220.975,42.793 V -40.969 H 149.962 V 42.793 H 98.973 v -207.589 h 50.989 v 76.482 h 71.013 v -76.482 h 50.989 V 42.793 Z M 390.01,0 h -36.102 v -42.793 h 36.102 c 11.315,0 20.485,10.085 20.485,21.399 C 410.495,-10.08 401.325,0 390.01,0 m 73.824,-22.764 c 0,-36.203 -29.353,-65.55 -65.556,-65.55 h -44.37 v -76.482 h -50.99 V 42.793 h 95.36 c 36.203,0 65.556,-29.354 65.556,-65.557"
       style="fill:#f2561a;fill-opacity:1;fill-rule:nonzero;stroke:none"
       transform="matrix(1.3333333,0,0,-1.3333333,130.03667,296.18453)"
       clip-path="url(#clipPath2)" />
  </g>
</svg>
