<?xml version="1.0" encoding="UTF-8" standalone="no"?>
<!-- Created with Inkscape (http://www.inkscape.org/) -->

<svg
   version="1.1"
   id="svg1"
   width="350.97333"
   height="313.42667"
   viewBox="0 0 350.97333 313.42667"
   sodipodi:docname="holden.svg"
   inkscape:version="1.4.1-rc (06eac75fbf, 2025-03-29)"
   xmlns:inkscape="http://www.inkscape.org/namespaces/inkscape"
   xmlns:sodipodi="http://sodipodi.sourceforge.net/DTD/sodipodi-0.dtd"
   xmlns="http://www.w3.org/2000/svg"
   xmlns:svg="http://www.w3.org/2000/svg">
  <defs
     id="defs1" />
  <sodipodi:namedview
     id="namedview1"
     pagecolor="#ffffff"
     bordercolor="#000000"
     borderopacity="0.25"
     inkscape:showpageshadow="2"
     inkscape:pageopacity="0.0"
     inkscape:pagecheckerboard="0"
     inkscape:deskcolor="#d1d1d1"
     inkscape:zoom="2.9129621"
     inkscape:cx="175.42281"
     inkscape:cy="156.71333"
     inkscape:window-width="1920"
     inkscape:window-height="1163"
     inkscape:window-x="0"
     inkscape:window-y="0"
     inkscape:window-maximized="1"
     inkscape:current-layer="g1">
    <inkscape:page
       x="0"
       y="0"
       inkscape:label="1"
       id="page1"
       width="350.97333"
       height="313.42667"
       margin="0"
       bleed="0" />
  </sodipodi:namedview>
  <g
     id="g1"
     inkscape:groupmode="layer"
     inkscape:label="1">
    <g
       id="group-R5">
      <path
         id="path2"
         d="m 1313.16,605.211 c -465.89,0 -843.566,381.039 -843.566,851.089 0,470.05 377.676,851.09 843.566,851.09 465.89,0 843.57,-381.04 843.57,-851.09 0,-470.05 -377.68,-851.089 -843.57,-851.089 z m 0,1745.519 c -489.609,0 -886.515,-400.44 -886.515,-894.43 0,-493.98 396.906,-894.421 886.515,-894.421 489.62,0 886.53,400.441 886.53,894.421 0,493.99 -396.91,894.43 -886.53,894.43"
         style="fill:#100f0d;fill-opacity:1;fill-rule:nonzero;stroke:none"
         transform="matrix(0.13333333,0,0,-0.13333333,0,313.42667)" />
      <path
         id="path3"
         d="M 275.293,193.789 H 104.473 V 314.898 H 0 V 12.7109 H 104.473 V 138.949 h 170.82 c 0,-13.859 0,-27.23 0,-39.4881 0,-54.539 15.898,-86.75 76.469,-86.75 H 379.77 V 314.898 H 275.293 c 0,0 0,-57.918 0,-121.109"
         style="fill:#100f0d;fill-opacity:1;fill-rule:nonzero;stroke:none"
         transform="matrix(0.13333333,0,0,-0.13333333,0,313.42667)" />
      <path
         id="path4"
         d="M 1067.11,106.02 V 314.898 H 962.629 c 0,0 0,-127.296 0,-210.109 0,-30.3906 34.699,-92.0781 104.481,-92.0781 h 214.78 v 60.8008 c 0,0 -166.05,0 -176.3,0 -10.24,0 -38.48,8.2891 -38.48,32.5083"
         style="fill:#100f0d;fill-opacity:1;fill-rule:nonzero;stroke:none"
         transform="matrix(0.13333333,0,0,-0.13333333,0,313.42667)" />
      <path
         id="path5"
         d="m 1909.89,106.02 v 32.089 h 196.85 v 55.973 h -196.85 v 63.578 h 226.74 v 57.36 h -226.74 -38.98 -65.49 c 0,0 0,-125.489 0,-208.29 0,-47.4487 34.71,-93.9097 104.47,-93.9097 0,-0.0195 0,-0.1094 0,-0.1094 h 231.08 v 60.8008 c 0,0 -182.34,0 -192.58,0 -10.26,0 -38.5,8.2891 -38.5,32.5083"
         style="fill:#100f0d;fill-opacity:1;fill-rule:nonzero;stroke:none"
         transform="matrix(0.13333333,0,0,-0.13333333,0,313.42667)" />
      <path
         id="path6"
         d="m 1612.67,168.832 c 0,-9.684 0,-15.25 0,-18.062 0,-56.438 -75.69,-80.1684 -99.44,-80.1684 -23.73,0 -15.39,0 -41.04,0 -25.66,0 -34,11.539 -34,42.3284 0,30.789 0,144.32 0,144.32 0,0 23.1,0 60.3,0 53.24,0 114.18,-30.141 114.18,-87.871 0,-0.199 0,-0.348 0,-0.547 z m -105.2,146.066 c -71.54,0 -30.59,0 -71.12,0 v 0.122 h -104.48 c 0,0 0,-147.071 0,-229.8794 0,-29.4101 32.61,-69.5195 97.98,-72.0703 v -0.3594 c 10.77,0 33.5,0 78.27,0 125.07,0 209.1,48.2891 209.1,108.5591 0,10.902 0,19.242 0,45.539 0,109.703 -134.71,148.089 -209.75,148.089"
         style="fill:#100f0d;fill-opacity:1;fill-rule:nonzero;stroke:none"
         transform="matrix(0.13333333,0,0,-0.13333333,0,313.42667)" />
      <path
         id="path7"
         d="m 2538.92,314.898 v -201.5 l -173.8,201.622 -133.18,-0.122 V 12.7109 h 96.86 V 221.488 c 0,0 77.52,-99.058 126.23,-153.9294 48.72,-54.8477 81.01,-54.8477 101.18,-54.8477 20.17,0 76.12,0 76.12,0 V 314.898 h -93.41"
         style="fill:#100f0d;fill-opacity:1;fill-rule:nonzero;stroke:none"
         transform="matrix(0.13333333,0,0,-0.13333333,0,313.42667)" />
      <path
         id="path8"
         d="m 678.723,62.2109 c -55.68,0 -100.825,45.6991 -100.825,102.0901 0,56.398 45.145,102.109 100.825,102.109 55.695,0 100.84,-45.711 100.84,-102.109 0,-56.391 -45.145,-102.0901 -100.84,-102.0901 z m -3.649,266.4101 c -117.558,0 -212.863,-73.57 -212.863,-164.32 C 462.211,73.5586 557.516,0 675.074,0 792.629,0 887.93,73.5586 887.93,164.301 c 0,90.75 -95.301,164.32 -212.856,164.32"
         style="fill:#100f0d;fill-opacity:1;fill-rule:nonzero;stroke:none"
         transform="matrix(0.13333333,0,0,-0.13333333,0,313.42667)" />
      <path
         id="path9"
         d="m 1120.63,1995.49 v -0.78 c 0,0 22.49,3.3 29.66,-2.32 7.17,-5.63 9.5,-22.88 15.51,-25.41 6.01,-2.52 20.17,17.85 33.55,30.84 13.37,12.98 29.47,23.07 48.27,38.58 -16.87,-0.2 -61.27,-12.6 -90.54,-21.52 -29.28,-8.93 -35.68,-12.22 -36.45,-19.39"
         style="fill:#100f0d;fill-opacity:1;fill-rule:nonzero;stroke:none"
         transform="matrix(0.13333333,0,0,-0.13333333,0,313.42667)" />
      <path
         id="path10"
         d="m 1774.88,984.082 c -57.88,-3.98 -180.31,-8.652 -216.9,-2.66 -36.59,5.976 -51.23,7.316 -59.22,55.888 -7.98,48.57 -13.3,81.17 -25.27,74.52 -11.99,-6.65 3.98,-40.59 -14.65,-124.432 -18.63,-83.816 -46.56,-151.687 -55.88,-145.707 -9.32,5.989 0.89,39.68 -16.76,39.258 -27.83,-0.648 -22.5,-53.89 -61.09,-117.097 -16.86,-27.602 -36.75,-55.043 -72.22,-85.942 20.17,-1.601 40.5,-2.648 61.08,-2.648 198.45,0 379.36,75.468 516.16,199.367 8.69,12.07 14.82,23.812 17.28,34.941 8.65,39.258 -14.65,78.5 -72.53,74.512"
         style="fill:#100f0d;fill-opacity:1;fill-rule:nonzero;stroke:none"
         transform="matrix(0.13333333,0,0,-0.13333333,0,313.42667)" />
      <path
         id="path11"
         d="m 1071.93,810.16 c 32.53,-2.39 73.18,-9.09 78.92,-6.699 5.75,2.391 36.35,37.789 53.57,96.148 17.22,58.36 19.13,86.582 17.7,123.891 -1.44,37.3 -3.35,57.4 -17.22,76.53 -13.87,19.13 -28.13,29.15 -58.36,70.32 -44.96,61.22 -41.13,90.89 -45.44,94.71 -4.3,3.82 -66.97,58.83 -177.467,85.62 -110.496,26.78 -193.246,-0.96 -202.813,4.3 -9.566,5.27 -22.004,18.66 -27.265,29.18 -5.262,10.52 -8.129,13.4 -13.871,8.62 -5.743,-4.79 -11.485,-13.88 -15.789,-24.4 -4.301,-10.52 -2.872,-27.27 -12.915,-25.36 -10.042,1.92 -30.136,22.01 -38.265,35.88 -8.129,13.88 -13.871,38.74 -3.352,46.88 10.524,8.13 48.789,22.95 72.707,40.65 23.914,17.7 43.532,42.1 121.5,42.1 77.969,0 174.125,-8.13 174.125,-16.26 0,-8.13 -1.433,-57.88 23.435,-86.58 24.88,-28.7 93.76,-86.1 99.5,-80.36 5.74,5.74 -2.9,15.93 -32.53,57.4 -36.45,51.01 -40.05,94.15 -22.96,125.8 14.87,27.55 36.93,53.13 58.6,70.63 21.66,17.5 83.87,56.95 96.25,79.99 36.25,67.51 23.75,125 61.66,163.34 37.92,38.33 91.66,47.92 126.66,65.83 35,17.92 60.84,37.91 44.59,62.08 -16.25,24.17 -55.42,49.59 -62.09,62.09 -6.66,12.5 -2.5,14.17 4.59,18.33 7.09,4.17 80,32.92 74.59,40.42 -5.43,7.5 -26.67,-8.76 -62.5,-13.34 -35.84,-4.58 -67.09,-2.5 -69.59,-12.5 -2.5,-10 65,-67.49 56.99,-95.71 -7.77,-27.38 -77.11,-54.94 -95.74,-68.04 -26.66,-18.75 -64.58,-46.14 -76.25,-90.98 -11.66,-44.85 -10.83,-64.43 -37.08,-92.35 -26.25,-27.91 -99.17,-88.75 -106.25,-83.33 -7.09,5.42 -5.45,32.26 -19.17,55.83 -16.25,27.92 -24.58,37.09 -20,41.25 4.58,4.17 12.5,-1.25 29.58,-12.5 17.09,-11.25 42.5,-18.34 58.34,-6.67 15.83,11.67 41.25,57.5 10.42,108.75 -30.84,51.25 -70.42,58.34 -100.84,52.92 -30.42,-5.42 -29.587,-15.42 -30.42,-25.83 -0.832,-10.42 6.973,-54.79 5.418,-59.02 -5.414,-14.73 -17.082,18.18 -35,35.27 -17.914,17.08 -43.75,49.16 -50,57.5 -6.25,8.33 -10.832,15.41 13.75,37.5 24.586,22.08 57.918,43.75 90.002,53.33 32.09,9.59 57.92,24.17 67.5,37.09 9.59,12.91 10.01,17.08 3.34,25.41 -6.67,8.34 3.33,12.5 26.25,22.08 22.91,9.59 80,32.92 124.16,40.84 44.17,7.91 65.42,4.99 132.91,12.91 67.5,7.92 80.84,10.84 100,20.84 19.18,10 29.18,17.06 27.93,7.9 -1.25,-9.15 -2.5,-64.57 26.66,-92.9 29.16,-28.34 96.25,-67.08 92.91,-72.92 -3.32,-5.83 -59.99,9.58 -60.82,-6.67 -0.84,-16.25 33.75,-39.16 74.16,-56.24 40.41,-17.09 69.58,-34.59 95.83,-67.09 26.25,-32.5 26.26,-34.16 16.67,-31.66 -9.59,2.5 -55,30 -67.92,18.75 -12.92,-11.25 22.92,-31.68 47.5,-62.51 24.58,-30.83 47.08,-73.33 64.58,-117.91 17.5,-44.58 39.04,-81.16 57.5,-107.92 37.5,-54.37 101.25,-65.62 101.88,-68.12 0.62,-2.5 -19.38,-27.5 -59.38,-38.75 -40,-11.25 -69.37,-15.63 -70.62,-20 -1.25,-4.38 28.75,-46.25 89.37,-72.5 60.63,-26.25 86.25,-26.88 112.5,-41.88 9.43,-5.38 26.6,-14.67 46.33,-27.33 16.59,63.47 25.52,130.06 25.52,198.77 0,429.82 -345.83,778.25 -772.44,778.25 -426.603,0 -772.427,-348.43 -772.427,-778.25 0,-73.69 10.387,-144.9 29.379,-212.46 3.223,-1.56 5.609,-2.48 6.621,-2.63 5.836,-0.83 3.898,4.9 40.148,28.65 36.25,23.75 123.75,66.25 234.375,47.5 110.625,-18.75 196.874,-92.5 238.124,-153.29 41.25,-60.79 65.63,-136.71 65.63,-206.71 0,-70 -13.71,-112.308 -17.91,-114.718 -4.21,-2.411 -28.65,3.918 -63.74,6.23 -35.08,2.297 -82.815,-5.184 -97.768,-9.203 -14.957,-4.027 -36.23,-31.059 -44.285,-52.91 0,0 -0.824,-2.028 -2.387,-5.469 16.024,-9.281 32.286,-18.191 49,-26.309 10.375,12.09 24.28,35.938 32.45,44.098 9.09,9.082 28.22,16.262 60.75,13.871"
         style="fill:#100f0d;fill-opacity:1;fill-rule:nonzero;stroke:none"
         transform="matrix(0.13333333,0,0,-0.13333333,0,313.42667)" />
      <path
         id="path12"
         d="m 1302.11,1324.44 c -36.63,12.1 -79.83,33.88 -110.58,80.18 -30.75,46.31 -31.79,64.97 -34.21,76.03 -2.42,11.05 -4.89,15.43 -7.89,14.62 -12.08,-3.27 -25.5,-34.5 -25,-69.01 0.5,-34.51 26,-97.02 44.51,-119.53 18.5,-22.5 19.9,-23.5 22.66,-19.82 2.75,3.67 -2.07,15.14 -7.35,28.68 -5.27,13.54 -5.72,21.8 -2.98,22.25 2.75,0.46 22.01,-25.84 70.04,-35.51 48.04,-9.68 131.67,3.1 131.67,6.56 0,3.46 -44.24,3.46 -80.87,15.55"
         style="fill:#100f0d;fill-opacity:1;fill-rule:nonzero;stroke:none"
         transform="matrix(0.13333333,0,0,-0.13333333,0,313.42667)" />
      <path
         id="path13"
         d="m 1607.69,1353.01 c -32.19,1.25 -88.13,16.56 -122.82,42.5 -34.68,25.94 -72.18,63.44 -90.62,87.5 -18.44,24.06 -51.41,68.07 -66.25,85.94 -20.31,24.47 -27.22,24.47 -27.22,24.47 -2.45,-1.12 9.83,-33.7 16.07,-51.55 6.25,-17.85 29.59,-81.67 52.09,-118.55 22.5,-36.87 63.43,-89.68 117.81,-103.43 54.37,-13.75 106.87,2.18 126.25,8.12 19.37,5.94 65.94,27.5 64.37,30.63 -1.56,3.12 -37.5,-6.88 -69.68,-5.63"
         style="fill:#100f0d;fill-opacity:1;fill-rule:nonzero;stroke:none"
         transform="matrix(0.13333333,0,0,-0.13333333,0,313.42667)" />
      <path
         id="path14"
         d="m 1730.81,1429.98 c -21.25,11.67 -48.48,42.07 -63.15,59.95 -14.68,17.87 -56.48,89.65 -93.8,141.02 -37.33,51.37 -74.35,72.43 -103.07,82.64 -28.71,10.21 -50.14,10.59 -50.09,7.02 0.05,-3.24 2.72,-4.86 17.88,-13.48 15.16,-8.62 23.9,-20.9 43.48,-43.4 19.59,-22.5 33.34,-49.58 52.5,-86.66 19.17,-37.09 32.5,-73.34 75.84,-115.42 43.34,-42.09 93.33,-50.83 120.41,-54.17 27.09,-3.33 33.75,0 34.17,2.09 0.42,2.08 -12.92,8.75 -34.17,20.41"
         style="fill:#100f0d;fill-opacity:1;fill-rule:nonzero;stroke:none"
         transform="matrix(0.13333333,0,0,-0.13333333,0,313.42667)" />
    </g>
  </g>
</svg>
