<?xml version="1.0" encoding="UTF-8" standalone="no"?>
<svg
   width="300"
   height="60"
   viewBox="0 0 300 60"
   fill="none"
   version="1.1"
   id="svg29"
   sodipodi:docname="tas-education-children-young-people.svg"
   inkscape:version="1.4.1-rc (06eac75fbf, 2025-03-29)"
   xmlns:inkscape="http://www.inkscape.org/namespaces/inkscape"
   xmlns:sodipodi="http://sodipodi.sourceforge.net/DTD/sodipodi-0.dtd"
   xmlns="http://www.w3.org/2000/svg"
   xmlns:svg="http://www.w3.org/2000/svg">
  <sodipodi:namedview
     id="namedview29"
     pagecolor="#ffffff"
     bordercolor="#000000"
     borderopacity="0.25"
     inkscape:showpageshadow="2"
     inkscape:pageopacity="0.0"
     inkscape:pagecheckerboard="0"
     inkscape:deskcolor="#d1d1d1"
     inkscape:zoom="2.6899521"
     inkscape:cx="118.21772"
     inkscape:cy="94.239598"
     inkscape:window-width="1920"
     inkscape:window-height="1163"
     inkscape:window-x="0"
     inkscape:window-y="0"
     inkscape:window-maximized="1"
     inkscape:current-layer="svg29" />
  <g
     clip-path="url(#clip0_553_1742)"
     id="g29">
    <path
       d="m 32.8271,30.1589 c 1.5598,0.5798 2.2551,0.6734 4.4566,0.4676 -1.1141,0.5915 -0.6685,1.5126 -2.4689,1.2882 -1.6868,-0.2104 -1.1676,-0.8416 -1.9877,-1.7558 z"
       fill="#221f1f"
       id="path1" />
    <path
       d="m 19.9655,11.8508 c 0,0 -0.1604,-1.1876 -3.0304,-4.94931 4.1579,1.55471 5.125,2.23504 7.6229,4.45371 -1.5416,0.0266 -3.0781,0.1925 -4.5925,0.4956 z"
       fill="#221f1f"
       id="path2" />
    <path
       d="m 45.6263,11.9537 c 0.8571,-3.25166 2.3983,-6.26031 4.51,-8.80453 -4.1156,1.89604 -6.2258,5.61097 -7.1304,8.23643 0.8611,0.2474 1.7363,0.4372 2.6204,0.5681 z"
       fill="#221f1f"
       id="path3" />
    <path
       d="m 32.533,19.3392 c 0.127,0.0818 0.3075,0.1402 0.3498,0.3132 l -0.0201,0.0328 c 0.2716,0.9544 0.3794,1.9518 0.3187,2.9457 -0.0201,0.0187 -0.0646,0.0351 -0.0825,0 -1.3057,-1.7347 -2.587,-2.9013 -4.0108,-3.6494 -0.0335,-0.0164 0.0467,-0.0795 0.0824,-0.0865 l 0.6172,-0.1169 c 0.9434,-0.028 1.8809,0.1637 2.7453,0.5611 z"
       fill="#221f1f"
       id="path4" />
    <path
       d="m 37.1184,19.3392 c -0.1247,0.0818 -0.3052,0.1402 -0.3498,0.3132 l 0.0201,0.0328 c -0.2693,0.9549 -0.3771,1.9518 -0.3187,2.9457 0.0201,0.0187 0.0646,0.0351 0.0825,0 1.3057,-1.7347 2.5892,-2.9013 4.022,-3.6494 0.0334,-0.0164 -0.0446,-0.0795 -0.0802,-0.0865 l -0.6195,-0.1169 c -0.9462,-0.0334 -1.8877,0.1543 -2.7564,0.5494 z"
       fill="#221f1f"
       id="path5" />
    <path
       d="m 25.9014,15.8159 c 0,0 4.5591,7.7315 5.2654,13.6557 -9.0445,-1.4448 -13.7573,-0.1052 -18.147,4.8582 -0.8914,-4.6267 -0.4323,-8.2622 0.0958,-10.4832 1.5916,1.075 3.093,2.2904 4.4877,3.6331 0,0 -2.2661,-5.0732 -4.383,-7.4813 0.7554,-2.6021 2.4801,-4.8652 2.4801,-4.8652 2.8566,1.6225 5.1849,4.1052 6.6848,7.1283 -0.3813,-3.154 -1.043,-6.2638 -1.9765,-9.2885 0,0 1.8227,1.4238 5.4927,2.8429 z"
       fill="#221f1f"
       id="path6" />
    <path
       d="m 13.3208,35.6367 c 0,0 2.5001,-3.4157 7.4714,-3.9207 8.6011,-0.872 19.1119,9.7748 28.8963,-3.5723 -0.5304,6.4806 -6.6626,13.1647 -17.2112,10.074 -5.6576,-1.6552 -7.9349,-4.2877 -12.3291,-4.3134 -4.1512,-0.0234 -6.8274,1.7324 -6.8274,1.7324 z"
       fill="#221f1f"
       id="path7" />
    <path
       d="m 45.234,13.9971 c -0.9404,0.2455 -3.1196,1.9895 -3.1196,1.9895 0,0 -0.8022,2.0013 -1.9074,6.6373 -0.9716,4.0727 -1.6445,7.811 -1.6445,7.811 0,0 6.9678,-0.3297 10.0807,-3.5957 -1.406,-2.4244 0.1003,-7.5865 1.6066,-9.5854 -3.0126,1.1689 -5.5239,5.5852 -5.5239,5.5852 0,0 -1.1074,-5.2603 0.5081,-8.8419 z"
       fill="#221f1f"
       id="path8" />
    <path
       d="m 27.6084,9.51991 c 0,0 2.2283,-2.59273 6.5311,-2.77743 4.5924,-0.19872 5.6464,0.93516 5.6464,0.93516 0,0 -1.7068,-3.64245 -3.4137,-3.88793 -1.9297,-0.28289 -3.6967,0.41848 -4.998,1.22506 -1.4127,0.86269 -2.7074,1.7885 -3.7658,4.50514 z"
       fill="#221f1f"
       id="path9" />
    <path
       d="m 27.6305,0.0140462 c 0,0 2.8655,-0.1846942 5.5707,0.7411158 C 29.0254,1.62019 25.6874,5.40058 24.4507,9.02667 24.3883,6.07857 23.8001,2.48287 27.6305,0.0140462 Z"
       fill="#221f1f"
       id="path10" />
    <path
       d="M 10.2748,41.7433 H 7.57638 v 6.9856 H 6.57365 V 41.7433 H 3.87744 v -0.9352 h 6.39736 z"
       fill="#221f1f"
       id="path11" />
    <path
       d="m 14.419,48.729 h -0.947 v -0.6336 c -0.0846,0.0585 -0.1983,0.145 -0.3431,0.2525 -0.1305,0.1 -0.27,0.1862 -0.4167,0.2572 -0.1757,0.0876 -0.3594,0.1565 -0.5482,0.2057 -0.2374,0.0578 -0.4805,0.0853 -0.7242,0.0819 -0.2393,0.0056 -0.4774,-0.0386 -0.7004,-0.1301 C 10.5165,48.6711 10.313,48.5341 10.1408,48.3596 9.9658,48.1858 9.8279,47.9752 9.73611,47.7414 9.64432,47.5077 9.60073,47.2563 9.6082,47.0036 9.592,46.6186 9.68842,46.2377 9.8845,45.9118 c 0.2,-0.2913 0.473,-0.5187 0.7888,-0.6569 0.3962,-0.1745 0.8155,-0.2841 1.2434,-0.325 0.4813,-0.0561 1.0012,-0.099 1.5598,-0.1286 V 44.654 c 0.0066,-0.1947 -0.0324,-0.3882 -0.1137,-0.5634 -0.0748,-0.1475 -0.1885,-0.2692 -0.3275,-0.3507 -0.1507,-0.0864 -0.3155,-0.1427 -0.4858,-0.166 -0.1971,-0.0286 -0.3959,-0.0426 -0.5949,-0.0421 -0.2813,0.0039 -0.5614,0.0392 -0.8356,0.1052 -0.3249,0.0735 -0.6438,0.1736 -0.9537,0.2993 h -0.0491 v -1.0147 c 0.185,-0.0537 0.4457,-0.1122 0.8045,-0.1776 0.3437,-0.0621 0.6918,-0.0934 1.0406,-0.0935 0.3493,-0.0048 0.6982,0.0297 1.0406,0.1028 0.2771,0.0595 0.5391,0.1798 0.7687,0.353 0.2132,0.1599 0.3823,0.3761 0.4902,0.6266 0.1199,0.3051 0.1769,0.6334 0.1672,0.9632 z m -0.947,-1.4635 v -1.6553 c -0.2897,0.0187 -0.6328,0.0445 -1.0272,0.0795 -0.315,0.0218 -0.6275,0.0735 -0.9337,0.1543 -0.2497,0.0663 -0.4796,0.1973 -0.6684,0.3811 -0.0851,0.0929 -0.1512,0.203 -0.1945,0.3236 -0.0433,0.1206 -0.0628,0.2491 -0.0573,0.3778 -0.01,0.1431 0.0115,0.2867 0.0629,0.4197 0.0514,0.1329 0.1313,0.2517 0.2334,0.3471 0.2594,0.1925 0.5745,0.2842 0.8913,0.2595 0.3169,0.0048 0.6307,-0.0655 0.9181,-0.2057 0.2749,-0.1295 0.535,-0.291 0.7754,-0.4816 z"
       fill="#221f1f"
       id="path12" />
    <path
       d="m 20.1167,47.0153 c 0.0032,0.2602 -0.0534,0.5175 -0.1651,0.7499 -0.1117,0.2324 -0.2752,0.4331 -0.4767,0.585 -0.4278,0.3484 -1.0094,0.5214 -1.7514,0.5214 -0.389,0.0033 -0.7766,-0.0494 -1.152,-0.1567 -0.3065,-0.0857 -0.6048,-0.2008 -0.8913,-0.3436 v -1.1222 h 0.0512 c 0.3054,0.2402 0.6434,0.4309 1.0027,0.5657 0.3392,0.1347 0.6982,0.2059 1.0607,0.2104 0.3395,0.0188 0.6779,-0.0545 0.9827,-0.2127 0.1135,-0.0652 0.207,-0.1629 0.2697,-0.2817 0.0627,-0.1187 0.0921,-0.2537 0.0846,-0.3893 0.0071,-0.0978 -0.0064,-0.196 -0.0395,-0.2877 -0.0331,-0.0917 -0.0851,-0.1747 -0.1522,-0.243 -0.22,-0.1624 -0.4735,-0.2681 -0.7397,-0.3086 -0.136,-0.0327 -0.312,-0.0701 -0.5304,-0.1122 -0.2183,-0.0421 -0.4167,-0.0888 -0.5949,-0.1379 -0.4039,-0.0839 -0.7735,-0.2961 -1.0585,-0.6079 -0.2116,-0.2809 -0.322,-0.6311 -0.3119,-0.9889 -0.0025,-0.2423 0.047,-0.482 0.1448,-0.7014 0.1041,-0.2266 0.2566,-0.425 0.4457,-0.5798 0.2134,-0.181 0.4587,-0.316 0.7219,-0.3974 0.318,-0.1002 0.6486,-0.149 0.9805,-0.145 0.346,5e-4 0.6908,0.0436 1.0272,0.1286 0.299,0.0704 0.5891,0.1771 0.8646,0.3179 v 1.0685 H 19.8381 C 19.5639,43.9468 19.2638,43.7893 18.9468,43.6791 18.6189,43.5538 18.273,43.4882 17.924,43.485 c -0.3094,-0.0123 -0.6166,0.0603 -0.8913,0.2104 -0.0948,0.0565 -0.1757,0.1353 -0.2365,0.2302 -0.0607,0.095 -0.0995,0.2035 -0.1134,0.3169 -0.0138,0.1134 -0.0023,0.2287 0.0337,0.3366 0.036,0.108 0.0954,0.2056 0.1736,0.2853 0.2058,0.154 0.4418,0.2578 0.6908,0.3039 0.1738,0.0421 0.3721,0.0842 0.5905,0.1286 0.2184,0.0444 0.3988,0.0795 0.5437,0.1169 0.3852,0.0735 0.7416,0.2636 1.025,0.5471 0.1266,0.1405 0.2252,0.3062 0.2899,0.4872 0.0646,0.1811 0.0941,0.374 0.0867,0.5672 z"
       fill="#221f1f"
       id="path13" />
    <path
       d="m 29.5691,48.7289 h -0.9537 v -3.3736 c 0,-0.2571 0,-0.5026 -0.0312,-0.7411 -0.012,-0.197 -0.0596,-0.3898 -0.1404,-0.5681 -0.0744,-0.149 -0.1912,-0.2699 -0.3342,-0.346 -0.1983,-0.0884 -0.4132,-0.1284 -0.6284,-0.1169 -0.2794,0.0032 -0.5542,0.0753 -0.8022,0.2104 -0.2822,0.1506 -0.55,0.3291 -0.7999,0.5331 0,0.0818 0.0178,0.1776 0.0245,0.2852 0.0067,0.1075 0,0.2151 0,0.3226 v 3.8038 h -0.947 v -3.383 c 0,-0.2642 0,-0.512 -0.0335,-0.7481 -0.0127,-0.1966 -0.0595,-0.3891 -0.1381,-0.5681 -0.0741,-0.1489 -0.1922,-0.2686 -0.3365,-0.3413 -0.1985,-0.0875 -0.4134,-0.1267 -0.6284,-0.1146 -0.2719,0.0036 -0.5394,0.0723 -0.7821,0.2011 -0.2772,0.1444 -0.5399,0.3175 -0.7843,0.5166 v 4.4421 h -0.9471 v -5.9594 h 0.9515 v 0.6593 c 0.2718,-0.2401 0.5713,-0.4435 0.8913,-0.6055 0.2955,-0.1459 0.6182,-0.2209 0.9448,-0.2198 0.3432,-0.011 0.6826,0.078 0.9805,0.2572 0.2644,0.1634 0.4745,0.4083 0.6016,0.7014 0.3186,-0.2934 0.6731,-0.5411 1.054,-0.7365 0.3195,-0.1536 0.6668,-0.2333 1.0183,-0.2337 0.6209,0 1.08,0.1979 1.3771,0.5938 0.2971,0.3959 0.4456,0.9484 0.4456,1.6576 z"
       fill="#221f1f"
       id="path14" />
    <path
       d="M 35.5252,48.729 H 34.576 v -0.6336 c -0.0847,0.0585 -0.1983,0.145 -0.3409,0.2525 -0.1312,0.1001 -0.2715,0.1862 -0.419,0.2572 -0.1755,0.088 -0.3592,0.1569 -0.5481,0.2057 -0.2374,0.0579 -0.4805,0.0854 -0.7242,0.0818 -0.239,0.0056 -0.4767,-0.0386 -0.6993,-0.1301 -0.2226,-0.0915 -0.4257,-0.2285 -0.5976,-0.4029 -0.1754,-0.1734 -0.3136,-0.384 -0.4054,-0.6178 -0.0918,-0.2338 -0.1351,-0.4855 -0.1271,-0.7382 -0.0174,-0.3851 0.0791,-0.7664 0.2763,-1.0918 0.1989,-0.2924 0.4723,-0.52 0.7888,-0.6569 0.3953,-0.1748 0.814,-0.2844 1.2412,-0.325 0.4842,-0.0561 1.0042,-0.099 1.5597,-0.1286 V 44.654 c 0.0067,-0.1947 -0.0323,-0.3882 -0.1136,-0.5634 -0.0748,-0.1475 -0.1885,-0.2692 -0.3275,-0.3507 -0.1506,-0.0868 -0.3154,-0.1431 -0.4858,-0.166 -0.1964,-0.0285 -0.3945,-0.0426 -0.5927,-0.0421 -0.2821,0.0039 -0.5629,0.0392 -0.8379,0.1052 -0.3241,0.0735 -0.6422,0.1736 -0.9514,0.2993 h -0.0513 v -1.0147 c 0.185,-0.0537 0.4457,-0.1122 0.8066,-0.1777 0.343,-0.062 0.6904,-0.0933 1.0384,-0.0935 0.3501,-0.0046 0.6997,0.0299 1.0429,0.1029 0.2763,0.0598 0.5375,0.1801 0.7665,0.353 0.2131,0.1623 0.3815,0.3809 0.488,0.6336 0.1198,0.3051 0.1768,0.6334 0.1671,0.9632 z M 34.576,47.2655 v -1.6553 c -0.2897,0.0187 -0.6328,0.0444 -1.025,0.0795 -0.3158,0.0216 -0.629,0.0733 -0.9359,0.1543 -0.2499,0.0659 -0.4798,0.197 -0.6685,0.3811 -0.1706,0.2069 -0.2611,0.4734 -0.2537,0.7469 0.0074,0.2736 0.1123,0.5342 0.2938,0.7306 0.2595,0.1923 0.5746,0.284 0.8913,0.2596 0.3169,0.0042 0.6306,-0.0661 0.9181,-0.2058 0.2766,-0.1326 0.5382,-0.2972 0.7799,-0.4909 z"
       fill="#221f1f"
       id="path15" />
    <path
       d="m 41.8113,48.729 h -0.9537 v -3.3736 c 6e-4,-0.2572 -0.0143,-0.5141 -0.0446,-0.7692 -0.0177,-0.1972 -0.0746,-0.3884 -0.1671,-0.5611 -0.0853,-0.149 -0.2131,-0.266 -0.3655,-0.3343 -0.1975,-0.0791 -0.4082,-0.1157 -0.6194,-0.1076 -0.2824,0.0056 -0.5604,0.0742 -0.8156,0.2011 -0.2902,0.138 -0.564,0.3114 -0.8155,0.5167 v 4.442 h -0.9537 v -5.9593 h 0.9537 v 0.6593 c 0.2787,-0.2465 0.5893,-0.4503 0.9225,-0.6056 0.308,-0.1436 0.6411,-0.2185 0.9782,-0.2197 0.2598,-0.0181 0.5202,0.0248 0.7622,0.1255 0.2421,0.1007 0.4597,0.2567 0.6371,0.4566 0.3209,0.385 0.4814,0.9414 0.4814,1.6693 z"
       fill="#221f1f"
       id="path16" />
    <path
       d="m 44.3607,41.7924 h -1.0741 v -1.038 h 1.0741 z m -0.0602,6.9366 h -0.9537 v -5.9453 h 0.9537 z"
       fill="#221f1f"
       id="path17" />
    <path
       d="m 50.2855,48.729 h -0.9492 v -0.6336 c -0.0847,0.0585 -0.1983,0.145 -0.3409,0.2525 -0.1312,0.1001 -0.2716,0.1862 -0.419,0.2572 -0.1755,0.088 -0.3592,0.1569 -0.5481,0.2057 -0.2374,0.0579 -0.4805,0.0854 -0.7242,0.0819 -0.2394,0.0056 -0.4774,-0.0386 -0.7004,-0.1301 -0.223,-0.0915 -0.4265,-0.2285 -0.5987,-0.403 -0.1749,-0.1738 -0.3128,-0.3844 -0.4046,-0.6182 -0.0918,-0.2337 -0.1354,-0.4851 -0.1279,-0.7378 -0.0162,-0.385 0.0802,-0.7659 0.2763,-1.0918 0.1999,-0.2913 0.473,-0.5187 0.7888,-0.6569 0.3961,-0.1745 0.8155,-0.2841 1.2433,-0.325 0.4836,-0.0561 1.0005,-0.0982 1.5598,-0.1286 V 44.654 c 0.0067,-0.1947 -0.0323,-0.3882 -0.1136,-0.5634 -0.0748,-0.1475 -0.1885,-0.2692 -0.3276,-0.3507 -0.1507,-0.0864 -0.3154,-0.1427 -0.4857,-0.166 -0.1964,-0.0285 -0.3945,-0.0426 -0.5927,-0.0421 -0.2821,0.0038 -0.563,0.0391 -0.8379,0.1052 -0.3247,0.0739 -0.6436,0.1739 -0.9537,0.2993 h -0.049 v -1.0147 c 0.1849,-0.0537 0.4457,-0.1122 0.8044,-0.1776 0.3437,-0.062 0.6918,-0.0933 1.0406,-0.0935 0.3494,-0.0048 0.6982,0.0297 1.0406,0.1028 0.2771,0.0595 0.5391,0.1798 0.7688,0.353 0.2125,0.1629 0.3808,0.3814 0.488,0.6336 0.1187,0.3055 0.1756,0.6335 0.1671,0.9632 z m -0.9492,-1.4635 v -1.6553 c -0.2897,0.0187 -0.6328,0.0445 -1.0273,0.0795 -0.315,0.0218 -0.6275,0.0735 -0.9336,0.1543 -0.2501,0.0654 -0.4801,0.1966 -0.6685,0.3811 -0.1706,0.207 -0.2611,0.4735 -0.2537,0.747 0.0074,0.2735 0.1123,0.5341 0.2938,0.7306 0.2594,0.1924 0.5745,0.2842 0.8913,0.2595 0.3169,0.0047 0.6307,-0.0656 0.9181,-0.2058 0.2769,-0.1321 0.5385,-0.2968 0.7799,-0.4909 z"
       fill="#221f1f"
       id="path18" />
    <path
       d="m 56.5715,48.7289 h -0.9537 v -3.3736 c 10e-4,-0.2572 -0.0146,-0.5142 -0.0468,-0.7692 -0.0156,-0.1976 -0.0726,-0.3893 -0.1671,-0.5611 -0.0846,-0.1495 -0.2127,-0.2667 -0.3654,-0.3343 -0.1968,-0.0792 -0.4067,-0.1158 -0.6173,-0.1075 -0.2823,0.0056 -0.5603,0.0741 -0.8155,0.201 -0.2907,0.1385 -0.5651,0.3119 -0.8178,0.5167 v 4.442 h -0.9515 v -5.9593 h 0.9515 v 0.6593 c 0.2795,-0.2454 0.5899,-0.4492 0.9225,-0.6055 0.3081,-0.1434 0.6412,-0.2183 0.9782,-0.2198 0.2598,-0.0182 0.5203,0.0246 0.7623,0.1253 0.2421,0.1007 0.4597,0.2568 0.6371,0.4569 0.3223,0.3849 0.4835,0.9414 0.4835,1.6692 z"
       fill="#221f1f"
       id="path19" />
    <path
       d="M 6.72708,59.2495 C 6.29001,59.4578 5.83863,59.6313 5.37674,59.7685 4.38423,60.0733 3.32771,60.0611 2.34183,59.7335 1.87025,59.5819 1.43873,59.3174 1.08139,58.9607 0.724053,58.604 0.450687,58.1651 0.282908,57.6784 0.0845296,57.1008 -0.0113814,56.4898 -8.28124e-5,55.8759 c 0,-1.264 0.3520678124,-2.2631 1.0562028124,-2.9972 0.70413,-0.7341 1.66972,-1.1003 2.89676,-1.0988 0.44277,0.0013 0.88392,0.0562 1.31468,0.1637 0.50055,0.1268 0.98627,0.311 1.44838,0.5494 v 1.2508 H 6.62458 C 6.51985,53.6573 6.36833,53.5474 6.16778,53.4071 5.98097,53.2759 5.78423,53.1609 5.57952,53.0634 5.32426,52.9447 5.05859,52.8523 4.78625,52.7875 4.45626,52.7117 4.11909,52.6756 3.7813,52.68 3.40793,52.6601 3.03495,52.7262 2.68851,52.8737 c -0.34644,0.1474 -0.65795,0.3725 -0.91266,0.6596 -0.4917,0.5689 -0.73756,1.3389 -0.73756,2.3099 0,1.0271 0.25625,1.8243 0.76876,2.3917 0.5125,0.5673 1.21218,0.8517 2.09903,0.8533 0.32622,3e-4 0.65165,-0.0334 0.97153,-0.1005 C 5.16789,58.93 5.4522,58.8431 5.72658,58.7282 V 56.7854 H 3.70999 v -0.9352 h 3.01709 z"
       fill="#221f1f"
       id="path20" />
    <path
       d="m 13.1133,56.8672 c 0,0.9679 -0.2362,1.7324 -0.7086,2.2935 -0.2387,0.2783 -0.533,0.4979 -0.862,0.643 C 11.2137,59.9488 10.8583,60.0158 10.5017,60 10.1444,60.0168 9.78801,59.9503 9.45817,59.8052 9.12833,59.66 8.8333,59.4399 8.59433,59.1607 8.12194,58.5996 7.88574,57.8351 7.88574,56.8672 c 0,-0.9679 0.2362,-1.7332 0.70859,-2.2958 0.23845,-0.2802 0.53328,-0.5013 0.86316,-0.6473 0.32989,-0.1459 0.68661,-0.2131 1.04421,-0.1967 0.357,-0.0156 0.7127,0.0521 1.0418,0.198 0.329,0.1459 0.6231,0.3665 0.8612,0.646 0.4724,0.558 0.7086,1.3232 0.7086,2.2958 z m -0.9827,0 c 0,-0.7699 -0.1441,-1.342 -0.4323,-1.716 -0.1436,-0.1854 -0.3267,-0.3327 -0.5345,-0.4302 -0.2079,-0.0974 -0.4347,-0.1423 -0.6621,-0.1309 -0.2285,-0.0125 -0.4566,0.0318 -0.66566,0.1293 -0.2091,0.0975 -0.39329,0.2454 -0.53757,0.4318 -0.28522,0.374 -0.42783,0.9461 -0.42783,1.716 0,0.7435 0.14261,1.3092 0.43006,1.6927 0.14053,0.192 0.323,0.3457 0.53202,0.4482 0.20898,0.1026 0.43848,0.1509 0.66898,0.1409 0.228,0.011 0.4551,-0.0349 0.6628,-0.1341 0.2076,-0.0992 0.3898,-0.2488 0.5316,-0.4363 0.2897,-0.3928 0.4345,-0.9609 0.4345,-1.7114 z"
       fill="#221f1f"
       id="path21" />
    <path
       d="m 19.0764,53.8934 -2.2929,5.9406 h -0.9626 l -2.2706,-5.9406 h 1.0339 l 1.7537,4.7296 1.738,-4.7296 z"
       fill="#221f1f"
       id="path22" />
    <path
       d="m 24.6401,56.9677 h -4.1713 c -0.0069,0.3255 0.046,0.6494 0.156,0.9539 0.0903,0.2471 0.2323,0.4699 0.4154,0.652 0.1832,0.1821 0.4029,0.3187 0.643,0.4 0.2577,0.0868 0.5271,0.1294 0.7977,0.1263 0.3984,-10e-5 0.7931,-0.0794 1.1632,-0.2338 0.3014,-0.1061 0.5838,-0.2641 0.8356,-0.4676 h 0.049 v 1.0918 c -0.32,0.1404 -0.6482,0.259 -0.9826,0.3554 -0.3436,0.0975 -0.6981,0.1462 -1.054,0.1449 -0.9403,0 -1.6742,-0.2673 -2.2016,-0.8019 -0.5273,-0.5346 -0.791,-1.2921 -0.791,-2.2724 0,-0.9726 0.2525,-1.7441 0.7576,-2.3146 0.256,-0.2857 0.5676,-0.5102 0.9136,-0.6582 0.3461,-0.1481 0.7185,-0.2162 1.0919,-0.1998 0.7643,0 1.3525,0.2338 1.767,0.7014 0.4145,0.4676 0.6195,1.1316 0.6195,1.9942 z m -0.9269,-0.7668 c 0.0238,-0.4411 -0.1106,-0.8756 -0.3766,-1.2181 -0.1491,-0.1521 -0.3273,-0.2691 -0.5229,-0.3433 -0.1956,-0.0742 -0.404,-0.1038 -0.6113,-0.0869 -0.2227,-0.0123 -0.4455,0.0228 -0.655,0.1031 -0.2094,0.0804 -0.4013,0.2044 -0.5639,0.3645 -0.3008,0.3114 -0.4837,0.7268 -0.5147,1.169 z"
       fill="#221f1f"
       id="path23" />
    <path
       d="m 29.4647,54.9828 h -0.0512 c -0.136,-0.0337 -0.2736,-0.0595 -0.4123,-0.0771 -0.1337,-0.014 -0.2919,-0.0234 -0.4746,-0.0234 -0.2949,-1e-4 -0.586,0.0703 -0.8512,0.2057 -0.2831,0.1419 -0.5487,0.3194 -0.791,0.5284 v 4.2082 h -0.9537 v -5.9312 h 0.9537 v 0.8767 c 0.3048,-0.2695 0.641,-0.4973 1.0005,-0.678 0.2804,-0.1314 0.5841,-0.1991 0.8913,-0.1987 0.1204,-0.002 0.2409,0.0027 0.3609,0.014 l 0.3343,0.0491 z"
       fill="#221f1f"
       id="path24" />
    <path
       d="m 35.0465,59.834 h -0.9537 v -3.3829 c 5e-4,-0.2564 -0.0144,-0.5125 -0.0446,-0.7669 -0.0173,-0.1976 -0.0751,-0.389 -0.1694,-0.5611 -0.0836,-0.1495 -0.211,-0.2667 -0.3632,-0.3343 -0.1975,-0.0791 -0.4082,-0.1156 -0.6194,-0.1075 -0.2824,0.0056 -0.5604,0.0741 -0.8156,0.201 -0.2911,0.1415 -0.5655,0.318 -0.8178,0.5261 v 4.442 h -0.9581 v -5.957 h 0.9515 v 0.6593 c 0.2789,-0.2463 0.5894,-0.4501 0.9225,-0.6055 0.3081,-0.1434 0.6411,-0.2183 0.9782,-0.2198 0.2601,-0.0181 0.5208,0.0248 0.7633,0.1255 0.2424,0.1007 0.4604,0.2567 0.6383,0.4567 0.3208,0.3849 0.4813,0.9414 0.4813,1.6692 z"
       fill="#221f1f"
       id="path25" />
    <path
       d="m 44.8572,59.834 h -0.9604 v -3.3829 c 0,-0.2549 0,-0.5004 -0.0334,-0.7388 -0.0119,-0.197 -0.0596,-0.3899 -0.1404,-0.5681 -0.0744,-0.149 -0.1912,-0.27 -0.3342,-0.3461 -0.198,-0.0895 -0.4131,-0.1295 -0.6284,-0.1168 -0.2788,0.0028 -0.5529,0.0749 -0.8,0.2104 -0.2829,0.1505 -0.5515,0.329 -0.8021,0.533 0.0111,0.0818 0.0178,0.1777 0.0245,0.2852 0.0067,0.1076 0,0.2151 0,0.3227 v 3.8014 h -0.9537 v -3.3829 c 0,-0.2619 0,-0.5097 -0.0334,-0.7458 -0.0117,-0.1968 -0.0585,-0.3896 -0.1382,-0.5682 -0.0739,-0.1482 -0.191,-0.2678 -0.3342,-0.3413 -0.1987,-0.087 -0.4134,-0.1261 -0.6284,-0.1145 -0.2727,0.0032 -0.541,0.0719 -0.7844,0.201 -0.2764,0.1445 -0.5384,0.3176 -0.7821,0.5167 v 4.442 h -0.9537 v -5.9476 h 0.9537 v 0.6593 c 0.2708,-0.2416 0.5705,-0.4451 0.8913,-0.6055 0.2955,-0.1459 0.6182,-0.221 0.9448,-0.2198 0.3432,-0.0111 0.6826,0.0779 0.9804,0.2572 0.265,0.1627 0.4752,0.4078 0.6017,0.7013 0.319,-0.2929 0.6734,-0.5405 1.054,-0.7364 0.3203,-0.1535 0.6683,-0.2332 1.0205,-0.2338 0.6217,0 1.0785,0.1987 1.3749,0.5938 0.3221,0.4842 0.4791,1.0682 0.4456,1.6576 z"
       fill="#221f1f"
       id="path26" />
    <path
       d="m 51.21,56.9678 h -4.1736 c -0.0063,0.3257 0.0474,0.6495 0.1582,0.9538 0.093,0.2544 0.2401,0.4831 0.4301,0.6687 0.1807,0.1725 0.394,0.3032 0.6261,0.3834 0.2577,0.0868 0.5271,0.1294 0.7977,0.1262 0.3991,-3e-4 0.7945,-0.0796 1.1654,-0.2337 0.3008,-0.106 0.5824,-0.264 0.8334,-0.4676 h 0.0513 v 1.0918 c -0.3209,0.14 -0.6499,0.2587 -0.9849,0.3553 -0.3436,0.0975 -0.6981,0.1463 -1.054,0.145 -0.9403,0 -1.6742,-0.2673 -2.2016,-0.8019 -0.5273,-0.5346 -0.7902,-1.2921 -0.7888,-2.2725 0,-0.9725 0.2526,-1.744 0.7577,-2.3145 0.2543,-0.2846 0.564,-0.5086 0.9081,-0.6566 0.3441,-0.1481 0.7145,-0.2167 1.0862,-0.2014 0.7643,0 1.3525,0.2338 1.767,0.7014 0.4144,0.4676 0.6217,1.1315 0.6217,1.9942 z m -0.9292,-0.7669 c 0.0238,-0.4411 -0.1106,-0.8755 -0.3766,-1.218 -0.1491,-0.1521 -0.3273,-0.2691 -0.5229,-0.3433 -0.1956,-0.0742 -0.404,-0.1038 -0.6113,-0.0869 -0.2227,-0.0123 -0.4455,0.0227 -0.655,0.1031 -0.2094,0.0803 -0.4013,0.2043 -0.5639,0.3645 -0.3008,0.3114 -0.4837,0.7268 -0.5147,1.169 z"
       fill="#221f1f"
       id="path27" />
    <path
       d="m 57.2331,59.834 h -0.9537 v -3.383 c 0.0017,-0.2564 -0.0132,-0.5126 -0.0445,-0.7668 -0.0177,-0.1973 -0.0747,-0.3884 -0.1672,-0.5611 -0.0846,-0.1496 -0.2127,-0.2667 -0.3654,-0.3343 -0.1974,-0.0796 -0.4082,-0.1162 -0.6195,-0.1076 -0.2823,0.0061 -0.5602,0.0746 -0.8155,0.2011 -0.2897,0.1391 -0.5633,0.3124 -0.8156,0.5167 v 4.442 H 52.498 v -5.9477 h 0.9537 v 0.6593 c 0.2782,-0.2473 0.5889,-0.4513 0.9226,-0.6055 0.308,-0.1437 0.6411,-0.2185 0.9782,-0.2197 0.2598,-0.0183 0.5202,0.0245 0.7623,0.1252 0.2421,0.1007 0.4597,0.2568 0.637,0.4569 0.3209,0.385 0.4813,0.9414 0.4813,1.6693 z"
       fill="#221f1f"
       id="path28" />
    <path
       d="m 61.7234,59.7826 c -0.193,0.0517 -0.3887,0.0923 -0.586,0.1216 -0.1866,0.03 -0.375,0.0457 -0.5637,0.0467 -0.2401,0.0184 -0.4813,-0.0156 -0.7083,-0.0997 -0.227,-0.0841 -0.435,-0.2165 -0.6109,-0.3889 -0.2971,-0.3257 -0.4456,-0.8486 -0.4456,-1.5687 v -3.1585 h -0.6507 v -0.8417 h 0.644 v -1.7066 h 0.9514 v 1.7066 h 1.9698 v 0.8417 h -1.9675 v 2.7073 c 0,0.3117 0.0067,0.5548 0.02,0.7294 0.0133,0.1733 0.062,0.3415 0.1426,0.4933 0.0674,0.1361 0.1754,0.2454 0.3075,0.3109 0.1895,0.0766 0.3923,0.11 0.595,0.0982 0.1643,-8e-4 0.3277,-0.0251 0.4858,-0.0724 0.1241,-0.0316 0.2461,-0.0714 0.3654,-0.1193 h 0.0512 z"
       fill="#221f1f"
       id="path29" />
  </g>
  <defs
     id="defs29">
    <rect
       x="82.935379"
       y="10.777656"
       width="219.16618"
       height="41.184204"
       id="rect30" />
    <clipPath
       id="clip0_553_1742">
      <rect
         width="61.714298"
         height="60"
         fill="#221f1f"
         id="rect29"
         x="0"
         y="0" />
    </clipPath>
  </defs>
  <path
     style="fill:#000000;stroke:#000000;stroke-width:1.5;stroke-dasharray:none;stroke-opacity:1"
     d="M 72.552026,51.128149 V 10.909091"
     id="path30" />
  <text
     xml:space="preserve"
     id="text30"
     style="font-size:16px;text-align:start;writing-mode:lr-tb;direction:ltr;white-space:pre;shape-inside:url(#rect30);fill:#000000;stroke:#000000;stroke-width:0;stroke-dasharray:none;stroke-opacity:1"
     transform="translate(0,1.4870154)"><tspan
       x="82.935547"
       y="25.335347"
       id="tspan2"><tspan
         style="font-weight:bold;font-family:'Noto Sans';-inkscape-font-specification:'Noto Sans Bold'"
         id="tspan1">Department for Education, </tspan></tspan><tspan
       x="82.935547"
       y="45.737099"
       id="tspan4"><tspan
         style="font-weight:bold;font-family:'Noto Sans';-inkscape-font-specification:'Noto Sans Bold'"
         id="tspan3">Children and Young People</tspan></tspan></text>
</svg>
